<svg width="288" height="179" viewBox="0 0 288 179" fill="none" xmlns="http://www.w3.org/2000/svg">
<rect y="44" width="288" height="27" rx="13.5" fill="#33B1C4"/>
<path d="M47.7614 4H49.9814V13.68C49.9814 14.5733 49.7747 15.3667 49.3614 16.06C48.9614 16.7533 48.3947 17.2933 47.6614 17.68C46.9414 18.0667 46.1081 18.26 45.1614 18.26C44.1214 18.26 43.2214 18.0467 42.4614 17.62C41.7147 17.18 41.1281 16.5467 40.7014 15.72L42.5014 14.66C42.8481 15.2333 43.2214 15.64 43.6214 15.88C44.0347 16.12 44.5747 16.24 45.2414 16.24C46.0281 16.24 46.6414 16.0267 47.0814 15.6C47.5347 15.16 47.7614 14.52 47.7614 13.68V4ZM56.9375 18.26C55.9908 18.26 55.1108 18.0267 54.2975 17.56C53.4975 17.08 52.8642 16.44 52.3975 15.64C51.9308 14.8267 51.6975 13.9467 51.6975 13C51.6975 12.0533 51.9308 11.18 52.3975 10.38C52.8642 9.58 53.4975 8.94667 54.2975 8.48C55.1108 8 55.9908 7.76 56.9375 7.76C57.8842 7.76 58.7575 8 59.5575 8.48C60.3708 8.94667 61.0108 9.58 61.4775 10.38C61.9442 11.18 62.1775 12.0533 62.1775 13C62.1775 13.9467 61.9442 14.8267 61.4775 15.64C61.0108 16.44 60.3708 17.08 59.5575 17.56C58.7575 18.0267 57.8842 18.26 56.9375 18.26ZM56.9375 16.16C57.5108 16.16 58.0375 16.02 58.5175 15.74C58.9975 15.4467 59.3775 15.06 59.6575 14.58C59.9375 14.1 60.0775 13.5733 60.0775 13C60.0775 12.4267 59.9375 11.9 59.6575 11.42C59.3775 10.94 58.9975 10.56 58.5175 10.28C58.0375 10 57.5108 9.86 56.9375 9.86C56.3642 9.86 55.8375 10 55.3575 10.28C54.8775 10.56 54.4908 10.94 54.1975 11.42C53.9175 11.9 53.7775 12.4267 53.7775 13C53.7775 13.5733 53.9175 14.1 54.1975 14.58C54.4908 15.06 54.8775 15.4467 55.3575 15.74C55.8375 16.02 56.3642 16.16 56.9375 16.16ZM65.0567 6.02C64.6567 6.02 64.3367 5.91333 64.0967 5.7C63.8701 5.47333 63.7567 5.16667 63.7567 4.78C63.7567 4.39333 63.8701 4.09333 64.0967 3.88C64.3367 3.65333 64.6567 3.54 65.0567 3.54C65.4567 3.54 65.7701 3.65333 65.9967 3.88C66.2367 4.09333 66.3567 4.39333 66.3567 4.78C66.3567 5.16667 66.2367 5.47333 65.9967 5.7C65.7701 5.91333 65.4567 6.02 65.0567 6.02ZM63.9967 18V8H66.0967V18H63.9967ZM73.5838 7.74C74.1704 7.74 74.7638 7.86667 75.3638 8.12C75.9771 8.36 76.5038 8.8 76.9438 9.44C77.3838 10.08 77.6038 10.94 77.6038 12.02V18H75.5038V12.02C75.5038 11.1667 75.2638 10.5533 74.7838 10.18C74.3038 9.79333 73.7438 9.6 73.1038 9.6C72.4771 9.6 71.9371 9.82 71.4838 10.26C71.0304 10.7 70.8038 11.4133 70.8038 12.4V18H68.7038V8H70.8038V9C71.1638 8.62667 71.5771 8.32667 72.0438 8.1C72.5238 7.86 73.0371 7.74 73.5838 7.74ZM89.8672 18.26C88.9205 18.26 88.0405 18.0267 87.2272 17.56C86.4272 17.08 85.7939 16.44 85.3272 15.64C84.8605 14.8267 84.6272 13.9467 84.6272 13C84.6272 12.0533 84.8605 11.18 85.3272 10.38C85.7939 9.58 86.4272 8.94667 87.2272 8.48C88.0405 8 88.9205 7.76 89.8672 7.76C90.8139 7.76 91.6872 8 92.4872 8.48C93.3005 8.94667 93.9405 9.58 94.4072 10.38C94.8739 11.18 95.1072 12.0533 95.1072 13C95.1072 13.9467 94.8739 14.8267 94.4072 15.64C93.9405 16.44 93.3005 17.08 92.4872 17.56C91.6872 18.0267 90.8139 18.26 89.8672 18.26ZM89.8672 16.16C90.4405 16.16 90.9672 16.02 91.4472 15.74C91.9272 15.4467 92.3072 15.06 92.5872 14.58C92.8672 14.1 93.0072 13.5733 93.0072 13C93.0072 12.4267 92.8672 11.9 92.5872 11.42C92.3072 10.94 91.9272 10.56 91.4472 10.28C90.9672 10 90.4405 9.86 89.8672 9.86C89.2939 9.86 88.7672 10 88.2872 10.28C87.8072 10.56 87.4205 10.94 87.1272 11.42C86.8472 11.9 86.7072 12.4267 86.7072 13C86.7072 13.5733 86.8472 14.1 87.1272 14.58C87.4205 15.06 87.8072 15.4467 88.2872 15.74C88.7672 16.02 89.2939 16.16 89.8672 16.16ZM103.329 8H105.429V18H103.329V17C102.969 17.3733 102.549 17.68 102.069 17.92C101.602 18.1467 101.095 18.26 100.549 18.26C99.9621 18.26 99.3621 18.14 98.7488 17.9C98.1488 17.6467 97.6288 17.2 97.1888 16.56C96.7488 15.92 96.5288 15.06 96.5288 13.98V8H98.6288V13.98C98.6288 14.8333 98.8621 15.4467 99.3288 15.82C99.8088 16.1933 100.369 16.38 101.009 16.38C101.635 16.38 102.175 16.16 102.629 15.72C103.095 15.28 103.329 14.5667 103.329 13.58V8ZM113.397 7.78C113.544 7.78 113.657 7.78667 113.737 7.8L113.577 9.8C113.431 9.76 113.291 9.74 113.157 9.74C112.331 9.74 111.637 9.99333 111.077 10.5C110.517 10.9933 110.237 11.6933 110.237 12.6V18H108.137V8H110.237V9.7C110.464 9.16667 110.851 8.71333 111.397 8.34C111.957 7.96667 112.624 7.78 113.397 7.78ZM129.537 16.06C129.057 16.74 128.444 17.28 127.697 17.68C126.951 18.0667 126.144 18.26 125.277 18.26C124.331 18.26 123.451 18.0267 122.637 17.56C121.837 17.08 121.204 16.44 120.737 15.64C120.271 14.8267 120.037 13.9467 120.037 13C120.037 12.0533 120.271 11.18 120.737 10.38C121.204 9.58 121.837 8.94667 122.637 8.48C123.451 8 124.331 7.76 125.277 7.76C126.131 7.76 126.924 7.95333 127.657 8.34C128.404 8.72667 129.024 9.26 129.517 9.94L127.797 11.1C127.477 10.7 127.097 10.3933 126.657 10.18C126.231 9.96667 125.771 9.86 125.277 9.86C124.704 9.86 124.177 10 123.697 10.28C123.217 10.56 122.837 10.94 122.557 11.42C122.277 11.9 122.137 12.4267 122.137 13C122.137 13.5733 122.277 14.1 122.557 14.58C122.837 15.06 123.217 15.4467 123.697 15.74C124.177 16.02 124.704 16.16 125.277 16.16C125.771 16.16 126.231 16.0533 126.657 15.84C127.097 15.6133 127.477 15.3067 127.797 14.92L129.537 16.06ZM135.609 18.26C134.663 18.26 133.783 18.0267 132.969 17.56C132.169 17.08 131.536 16.44 131.069 15.64C130.603 14.8267 130.369 13.9467 130.369 13C130.369 12.0533 130.603 11.18 131.069 10.38C131.536 9.58 132.169 8.94667 132.969 8.48C133.783 8 134.663 7.76 135.609 7.76C136.556 7.76 137.429 8 138.229 8.48C139.043 8.94667 139.683 9.58 140.149 10.38C140.616 11.18 140.849 12.0533 140.849 13C140.849 13.9467 140.616 14.8267 140.149 15.64C139.683 16.44 139.043 17.08 138.229 17.56C137.429 18.0267 136.556 18.26 135.609 18.26ZM135.609 16.16C136.183 16.16 136.709 16.02 137.189 15.74C137.669 15.4467 138.049 15.06 138.329 14.58C138.609 14.1 138.749 13.5733 138.749 13C138.749 12.4267 138.609 11.9 138.329 11.42C138.049 10.94 137.669 10.56 137.189 10.28C136.709 10 136.183 9.86 135.609 9.86C135.036 9.86 134.509 10 134.029 10.28C133.549 10.56 133.163 10.94 132.869 11.42C132.589 11.9 132.449 12.4267 132.449 13C132.449 13.5733 132.589 14.1 132.869 14.58C133.163 15.06 133.549 15.4467 134.029 15.74C134.509 16.02 135.036 16.16 135.609 16.16ZM153.954 7.74C154.54 7.74 155.134 7.86667 155.734 8.12C156.347 8.36 156.874 8.8 157.314 9.44C157.754 10.08 157.974 10.94 157.974 12.02V18H155.874V12.02C155.874 11.1667 155.634 10.5533 155.154 10.18C154.674 9.79333 154.114 9.6 153.474 9.6C152.954 9.6 152.48 9.76 152.054 10.08C151.64 10.3867 151.367 10.8933 151.234 11.6C151.247 11.68 151.254 11.82 151.254 12.02V18H149.154V12.02C149.154 11.1533 148.914 10.5333 148.434 10.16C147.967 9.78667 147.414 9.6 146.774 9.6C146.28 9.6 145.82 9.74667 145.394 10.04C144.98 10.3333 144.7 10.8 144.554 11.44V18H142.454V8H144.554V8.9C144.914 8.54 145.32 8.26 145.774 8.06C146.227 7.84667 146.714 7.74 147.234 7.74C147.874 7.74 148.514 7.88667 149.154 8.18C149.807 8.46 150.32 8.93333 150.694 9.6C151.027 9.08 151.48 8.64 152.054 8.28C152.64 7.92 153.274 7.74 153.954 7.74ZM171.532 7.74C172.119 7.74 172.712 7.86667 173.312 8.12C173.925 8.36 174.452 8.8 174.892 9.44C175.332 10.08 175.552 10.94 175.552 12.02V18H173.452V12.02C173.452 11.1667 173.212 10.5533 172.732 10.18C172.252 9.79333 171.692 9.6 171.052 9.6C170.532 9.6 170.059 9.76 169.632 10.08C169.219 10.3867 168.945 10.8933 168.812 11.6C168.825 11.68 168.832 11.82 168.832 12.02V18H166.732V12.02C166.732 11.1533 166.492 10.5333 166.012 10.16C165.545 9.78667 164.992 9.6 164.352 9.6C163.859 9.6 163.399 9.74667 162.972 10.04C162.559 10.3333 162.279 10.8 162.132 11.44V18H160.032V8H162.132V8.9C162.492 8.54 162.899 8.26 163.352 8.06C163.805 7.84667 164.292 7.74 164.812 7.74C165.452 7.74 166.092 7.88667 166.732 8.18C167.385 8.46 167.899 8.93333 168.272 9.6C168.605 9.08 169.059 8.64 169.632 8.28C170.219 7.92 170.852 7.74 171.532 7.74ZM184.149 8H186.249V18H184.149V17C183.789 17.3733 183.369 17.68 182.889 17.92C182.422 18.1467 181.916 18.26 181.369 18.26C180.782 18.26 180.182 18.14 179.569 17.9C178.969 17.6467 178.449 17.2 178.009 16.56C177.569 15.92 177.349 15.06 177.349 13.98V8H179.449V13.98C179.449 14.8333 179.682 15.4467 180.149 15.82C180.629 16.1933 181.189 16.38 181.829 16.38C182.456 16.38 182.996 16.16 183.449 15.72C183.916 15.28 184.149 14.5667 184.149 13.58V8ZM193.838 7.74C194.424 7.74 195.018 7.86667 195.618 8.12C196.231 8.36 196.758 8.8 197.198 9.44C197.638 10.08 197.858 10.94 197.858 12.02V18H195.758V12.02C195.758 11.1667 195.518 10.5533 195.038 10.18C194.558 9.79333 193.998 9.6 193.358 9.6C192.731 9.6 192.191 9.82 191.738 10.26C191.284 10.7 191.058 11.4133 191.058 12.4V18H188.958V8H191.058V9C191.418 8.62667 191.831 8.32667 192.298 8.1C192.778 7.86 193.291 7.74 193.838 7.74ZM201.014 6.02C200.614 6.02 200.294 5.91333 200.054 5.7C199.827 5.47333 199.714 5.16667 199.714 4.78C199.714 4.39333 199.827 4.09333 200.054 3.88C200.294 3.65333 200.614 3.54 201.014 3.54C201.414 3.54 201.727 3.65333 201.954 3.88C202.194 4.09333 202.314 4.39333 202.314 4.78C202.314 5.16667 202.194 5.47333 201.954 5.7C201.727 5.91333 201.414 6.02 201.014 6.02ZM199.954 18V8H202.054V18H199.954ZM207.958 14.72C207.958 15.2533 208.065 15.62 208.278 15.82C208.505 16.02 208.865 16.12 209.358 16.12C209.638 16.12 209.958 16.1 210.318 16.06V18C209.718 18.0667 209.212 18.1 208.798 18.1C207.798 18.1 207.058 17.8667 206.578 17.4C206.098 16.92 205.858 16.0733 205.858 14.86V9.9H203.798V8H205.858V5.4L207.958 4.68V8H210.278V9.9H207.958V14.72ZM219.351 8H221.571L217.911 18.2C217.404 19.4933 216.718 20.4733 215.851 21.14C214.984 21.8067 213.978 22.0933 212.831 22V19.98C212.898 19.9933 212.998 20 213.131 20C214.304 20 215.211 19.2467 215.851 17.74L211.371 8H213.631L216.851 14.94L219.351 8ZM232.855 18.26C231.909 18.26 231.029 18.0267 230.215 17.56C229.415 17.08 228.782 16.44 228.315 15.64C227.849 14.8267 227.615 13.9467 227.615 13C227.615 12.0533 227.849 11.18 228.315 10.38C228.782 9.58 229.415 8.94667 230.215 8.48C231.029 8 231.909 7.76 232.855 7.76C233.802 7.76 234.675 8 235.475 8.48C236.289 8.94667 236.929 9.58 237.395 10.38C237.862 11.18 238.095 12.0533 238.095 13C238.095 13.9467 237.862 14.8267 237.395 15.64C236.929 16.44 236.289 17.08 235.475 17.56C234.675 18.0267 233.802 18.26 232.855 18.26ZM232.855 16.16C233.429 16.16 233.955 16.02 234.435 15.74C234.915 15.4467 235.295 15.06 235.575 14.58C235.855 14.1 235.995 13.5733 235.995 13C235.995 12.4267 235.855 11.9 235.575 11.42C235.295 10.94 234.915 10.56 234.435 10.28C233.955 10 233.429 9.86 232.855 9.86C232.282 9.86 231.755 10 231.275 10.28C230.795 10.56 230.409 10.94 230.115 11.42C229.835 11.9 229.695 12.4267 229.695 13C229.695 13.5733 229.835 14.1 230.115 14.58C230.409 15.06 230.795 15.4467 231.275 15.74C231.755 16.02 232.282 16.16 232.855 16.16ZM245.06 5.78C244.7 5.74 244.38 5.72 244.1 5.72C243.607 5.72 243.247 5.82 243.02 6.02C242.807 6.22 242.7 6.58667 242.7 7.12V8H245.04V9.9H242.7V18H240.6V9.9H238.84V8H240.6V6.98C240.6 5.76667 240.84 4.92667 241.32 4.46C241.813 3.98 242.567 3.74 243.58 3.74C243.967 3.74 244.46 3.77333 245.06 3.84V5.78Z" fill="#484B51"/>
<path d="M34.0567 165C35.7234 165 37.0367 165.393 37.9967 166.18C38.9701 166.967 39.4567 168.04 39.4567 169.4C39.4567 170.893 38.9701 172.073 37.9967 172.94C37.0367 173.807 35.7234 174.24 34.0567 174.24C32.8167 174.24 31.7501 174.06 30.8567 173.7C29.9634 173.327 29.2901 172.793 28.8367 172.1C28.3834 171.407 28.1767 170.593 28.2167 169.66L31.7567 169.26C31.7834 169.713 31.9967 170.073 32.3967 170.34C32.8101 170.593 33.3634 170.72 34.0567 170.72C34.6434 170.72 35.1034 170.607 35.4367 170.38C35.7701 170.14 35.9367 169.813 35.9367 169.4C35.9367 169.013 35.7634 168.713 35.4167 168.5C35.0834 168.273 34.6301 168.16 34.0567 168.16H28.8167L29.8367 160H38.8567V163.6H32.9967L32.8167 165H34.0567ZM51.6591 164.84C51.6591 165.88 51.3857 166.82 50.8391 167.66L46.8991 174H42.5391L45.1191 169.86C44.2657 169.727 43.5057 169.427 42.8391 168.96C42.1857 168.493 41.6724 167.907 41.2991 167.2C40.9391 166.48 40.7591 165.693 40.7591 164.84C40.7591 163.853 40.9924 162.973 41.4591 162.2C41.9257 161.413 42.5724 160.8 43.3991 160.36C44.2391 159.92 45.1791 159.7 46.2191 159.7C47.2591 159.7 48.1924 159.92 49.0191 160.36C49.8457 160.8 50.4924 161.413 50.9591 162.2C51.4257 162.987 51.6591 163.867 51.6591 164.84ZM44.6591 164.84C44.6591 165.227 44.8124 165.56 45.1191 165.84C45.4391 166.12 45.8057 166.26 46.2191 166.26C46.6324 166.26 46.9924 166.12 47.2991 165.84C47.6057 165.56 47.7591 165.227 47.7591 164.84C47.7591 164.427 47.5991 164.087 47.2791 163.82C46.9724 163.54 46.6191 163.4 46.2191 163.4C45.7791 163.4 45.4057 163.54 45.0991 163.82C44.8057 164.1 44.6591 164.44 44.6591 164.84ZM54.6014 174.2C54.2414 174.08 53.9814 173.96 53.8214 173.84C53.6747 173.72 53.5747 173.56 53.5214 173.36C53.4814 173.147 53.4614 172.827 53.4614 172.4C53.4614 171.8 53.6214 171.34 53.9414 171.02C54.2614 170.7 54.7147 170.54 55.3014 170.54C55.8881 170.54 56.3481 170.707 56.6814 171.04C57.0147 171.373 57.1814 171.84 57.1814 172.44C57.1681 173.107 57.0947 173.627 56.9614 174C56.8281 174.36 56.5681 174.78 56.1814 175.26L54.8414 176.88L53.8214 176.02L54.6014 174.2ZM64.2664 174.28C63.0664 174.28 62.0064 173.973 61.0864 173.36C60.1664 172.747 59.4464 171.893 58.9264 170.8C58.4197 169.693 58.1664 168.427 58.1664 167C58.1664 165.573 58.4197 164.313 58.9264 163.22C59.4464 162.113 60.1664 161.253 61.0864 160.64C62.0064 160.027 63.0664 159.72 64.2664 159.72C65.4664 159.72 66.5264 160.027 67.4464 160.64C68.3664 161.253 69.0797 162.113 69.5864 163.22C70.1064 164.313 70.3664 165.573 70.3664 167C70.3664 168.427 70.1064 169.693 69.5864 170.8C69.0797 171.893 68.3664 172.747 67.4464 173.36C66.5264 173.973 65.4664 174.28 64.2664 174.28ZM64.2664 170.48C64.9597 170.48 65.5131 170.213 65.9264 169.68C66.3531 169.147 66.5664 168.253 66.5664 167C66.5664 165.747 66.3531 164.853 65.9264 164.32C65.5131 163.787 64.9597 163.52 64.2664 163.52C63.5731 163.52 63.0131 163.787 62.5864 164.32C62.1731 164.853 61.9664 165.747 61.9664 167C61.9664 168.253 62.1731 169.147 62.5864 169.68C63.0131 170.213 63.5731 170.48 64.2664 170.48ZM76.6688 174.28C75.4688 174.28 74.4088 173.973 73.4888 173.36C72.5688 172.747 71.8488 171.893 71.3288 170.8C70.8221 169.693 70.5688 168.427 70.5688 167C70.5688 165.573 70.8221 164.313 71.3288 163.22C71.8488 162.113 72.5688 161.253 73.4888 160.64C74.4088 160.027 75.4688 159.72 76.6688 159.72C77.8688 159.72 78.9288 160.027 79.8488 160.64C80.7688 161.253 81.4821 162.113 81.9888 163.22C82.5088 164.313 82.7688 165.573 82.7688 167C82.7688 168.427 82.5088 169.693 81.9888 170.8C81.4821 171.893 80.7688 172.747 79.8488 173.36C78.9288 173.973 77.8688 174.28 76.6688 174.28ZM76.6688 170.48C77.3621 170.48 77.9154 170.213 78.3288 169.68C78.7554 169.147 78.9688 168.253 78.9688 167C78.9688 165.747 78.7554 164.853 78.3288 164.32C77.9154 163.787 77.3621 163.52 76.6688 163.52C75.9754 163.52 75.4154 163.787 74.9888 164.32C74.5754 164.853 74.3688 165.747 74.3688 167C74.3688 168.253 74.5754 169.147 74.9888 169.68C75.4154 170.213 75.9754 170.48 76.6688 170.48ZM89.0711 174.28C87.8711 174.28 86.8111 173.973 85.8911 173.36C84.9711 172.747 84.2511 171.893 83.7311 170.8C83.2244 169.693 82.9711 168.427 82.9711 167C82.9711 165.573 83.2244 164.313 83.7311 163.22C84.2511 162.113 84.9711 161.253 85.8911 160.64C86.8111 160.027 87.8711 159.72 89.0711 159.72C90.2711 159.72 91.3311 160.027 92.2511 160.64C93.1711 161.253 93.8844 162.113 94.3911 163.22C94.9111 164.313 95.1711 165.573 95.1711 167C95.1711 168.427 94.9111 169.693 94.3911 170.8C93.8844 171.893 93.1711 172.747 92.2511 173.36C91.3311 173.973 90.2711 174.28 89.0711 174.28ZM89.0711 170.48C89.7644 170.48 90.3178 170.213 90.7311 169.68C91.1578 169.147 91.3711 168.253 91.3711 167C91.3711 165.747 91.1578 164.853 90.7311 164.32C90.3178 163.787 89.7644 163.52 89.0711 163.52C88.3778 163.52 87.8178 163.787 87.3911 164.32C86.9778 164.853 86.7711 165.747 86.7711 167C86.7711 168.253 86.9778 169.147 87.3911 169.68C87.8178 170.213 88.3778 170.48 89.0711 170.48ZM110.551 160V163.6H105.371V165.28H110.371V168.88H105.371V174H101.571V160H110.551ZM114.23 163.26C113.577 163.26 113.063 163.087 112.69 162.74C112.317 162.38 112.13 161.893 112.13 161.28C112.13 160.667 112.317 160.18 112.69 159.82C113.063 159.46 113.577 159.28 114.23 159.28C114.883 159.28 115.397 159.46 115.77 159.82C116.143 160.18 116.33 160.667 116.33 161.28C116.33 161.893 116.143 162.38 115.77 162.74C115.397 163.087 114.883 163.26 114.23 163.26ZM112.43 174V164H116.03V174H112.43ZM122.671 169.26L124.491 164H128.291L124.851 174H120.491L117.051 164H120.851L122.671 169.26ZM133.596 163.72C134.556 163.72 135.422 163.953 136.196 164.42C136.969 164.873 137.576 165.5 138.016 166.3C138.456 167.1 138.676 168 138.676 169C138.676 169.44 138.636 169.853 138.556 170.24H131.856C132.162 170.653 132.456 170.927 132.736 171.06C133.016 171.18 133.396 171.24 133.876 171.24C134.182 171.24 134.476 171.193 134.756 171.1C135.036 170.993 135.269 170.833 135.456 170.62L138.176 172.22C137.189 173.593 135.736 174.28 133.816 174.28C132.696 174.28 131.716 174.053 130.876 173.6C130.049 173.133 129.409 172.5 128.956 171.7C128.502 170.9 128.276 170 128.276 169C128.276 168.013 128.496 167.12 128.936 166.32C129.389 165.507 130.022 164.873 130.836 164.42C131.649 163.953 132.569 163.72 133.596 163.72ZM135.296 167.5C135.216 167.273 135.016 167.1 134.696 166.98C134.376 166.86 134.002 166.8 133.576 166.8C133.136 166.8 132.736 166.867 132.376 167C132.029 167.12 131.836 167.287 131.796 167.5H135.296ZM148.795 166.92C148.795 167.067 148.888 167.173 149.075 167.24C149.275 167.293 149.628 167.367 150.135 167.46C150.922 167.58 151.588 167.733 152.135 167.92C152.682 168.107 153.162 168.44 153.575 168.92C154.002 169.4 154.215 170.067 154.215 170.92C154.215 171.653 153.988 172.273 153.535 172.78C153.095 173.287 152.515 173.667 151.795 173.92C151.075 174.16 150.302 174.28 149.475 174.28C148.368 174.28 147.415 174.087 146.615 173.7C145.815 173.3 145.202 172.7 144.775 171.9L147.695 170.4C147.842 170.773 148.062 171.047 148.355 171.22C148.648 171.38 149.022 171.46 149.475 171.46C149.822 171.46 150.115 171.42 150.355 171.34C150.608 171.26 150.735 171.127 150.735 170.94C150.735 170.793 150.622 170.68 150.395 170.6C150.182 170.52 149.802 170.42 149.255 170.3C148.482 170.153 147.815 169.987 147.255 169.8C146.695 169.6 146.208 169.28 145.795 168.84C145.382 168.387 145.175 167.787 145.175 167.04C145.175 166.347 145.375 165.753 145.775 165.26C146.188 164.753 146.728 164.373 147.395 164.12C148.062 163.853 148.782 163.72 149.555 163.72C150.462 163.72 151.288 163.907 152.035 164.28C152.782 164.64 153.375 165.167 153.815 165.86L150.895 167.3C150.735 167.033 150.555 166.84 150.355 166.72C150.168 166.6 149.902 166.54 149.555 166.54C149.328 166.54 149.142 166.573 148.995 166.64C148.862 166.707 148.795 166.8 148.795 166.92ZM159.636 170.14C159.636 170.353 159.73 170.507 159.916 170.6C160.103 170.693 160.37 170.74 160.716 170.74C160.863 170.74 161.136 170.727 161.536 170.7V174C160.83 174.067 160.23 174.1 159.736 174.1C158.496 174.1 157.57 173.833 156.956 173.3C156.343 172.767 156.036 171.8 156.036 170.4V167.2H154.616V164H156.036V161.96L159.636 160.76V164H161.496V167.2H159.636V170.14ZM170.351 164H173.951V174H170.351V173.58C169.538 174.06 168.685 174.3 167.791 174.3C166.191 174.3 164.958 173.82 164.091 172.86C163.225 171.887 162.791 170.607 162.791 169.02C162.791 167.42 163.225 166.133 164.091 165.16C164.958 164.187 166.191 163.7 167.791 163.7C168.685 163.7 169.538 163.94 170.351 164.42V164ZM168.291 170.88C168.878 170.88 169.365 170.707 169.751 170.36C170.138 170.013 170.331 169.553 170.331 168.98C170.331 168.42 170.138 167.98 169.751 167.66C169.365 167.34 168.878 167.18 168.291 167.18C167.718 167.18 167.258 167.347 166.911 167.68C166.565 168 166.391 168.447 166.391 169.02C166.391 169.607 166.565 170.067 166.911 170.4C167.258 170.72 167.718 170.88 168.291 170.88ZM183.099 163.8L182.879 167.2C182.732 167.147 182.559 167.12 182.359 167.12C181.825 167.12 181.359 167.227 180.959 167.44C180.572 167.64 180.272 167.907 180.059 168.24C179.859 168.56 179.759 168.907 179.759 169.28V174H176.159V164H179.759V165.58C179.985 165.087 180.365 164.667 180.899 164.32C181.432 163.973 182.072 163.8 182.819 163.8H183.099ZM196.536 163.8L196.316 167.2C196.169 167.147 195.996 167.12 195.796 167.12C195.263 167.12 194.796 167.227 194.396 167.44C194.009 167.64 193.709 167.907 193.496 168.24C193.296 168.56 193.196 168.907 193.196 169.28V174H189.596V164H193.196V165.58C193.423 165.087 193.803 164.667 194.336 164.32C194.869 163.973 195.509 163.8 196.256 163.8H196.536ZM204.765 164H208.365V174H204.765V173.58C203.952 174.06 203.099 174.3 202.205 174.3C200.605 174.3 199.372 173.82 198.505 172.86C197.639 171.887 197.205 170.607 197.205 169.02C197.205 167.42 197.639 166.133 198.505 165.16C199.372 164.187 200.605 163.7 202.205 163.7C203.099 163.7 203.952 163.94 204.765 164.42V164ZM202.705 170.88C203.292 170.88 203.779 170.707 204.165 170.36C204.552 170.013 204.745 169.553 204.745 168.98C204.745 168.42 204.552 167.98 204.165 167.66C203.779 167.34 203.292 167.18 202.705 167.18C202.132 167.18 201.672 167.347 201.325 167.68C200.979 168 200.805 168.447 200.805 169.02C200.805 169.607 200.979 170.067 201.325 170.4C201.672 170.72 202.132 170.88 202.705 170.88ZM214.597 170.14C214.597 170.353 214.691 170.507 214.877 170.6C215.064 170.693 215.331 170.74 215.677 170.74C215.824 170.74 216.097 170.727 216.497 170.7V174C215.791 174.067 215.191 174.1 214.697 174.1C213.457 174.1 212.531 173.833 211.917 173.3C211.304 172.767 210.997 171.8 210.997 170.4V167.2H209.577V164H210.997V161.96L214.597 160.76V164H216.457V167.2H214.597V170.14ZM220.363 163.26C219.709 163.26 219.196 163.087 218.823 162.74C218.449 162.38 218.263 161.893 218.263 161.28C218.263 160.667 218.449 160.18 218.823 159.82C219.196 159.46 219.709 159.28 220.363 159.28C221.016 159.28 221.529 159.46 221.903 159.82C222.276 160.18 222.463 160.667 222.463 161.28C222.463 161.893 222.276 162.38 221.903 162.74C221.529 163.087 221.016 163.26 220.363 163.26ZM218.563 174V164H222.163V174H218.563ZM229.944 163.7C230.517 163.7 231.097 163.827 231.684 164.08C232.284 164.333 232.79 164.787 233.204 165.44C233.63 166.08 233.844 166.94 233.844 168.02V174H230.244V168.02C230.244 167.607 230.124 167.307 229.884 167.12C229.644 166.92 229.35 166.82 229.004 166.82C228.657 166.82 228.384 166.953 228.184 167.22C227.984 167.473 227.884 167.86 227.884 168.38V174H224.284V164H227.884V164.42C228.55 163.94 229.237 163.7 229.944 163.7ZM242.714 164H246.314V173.5C246.314 174.42 246.061 175.24 245.554 175.96C245.061 176.693 244.367 177.26 243.474 177.66C242.594 178.073 241.601 178.28 240.494 178.28C239.321 178.28 238.221 178.047 237.194 177.58C236.181 177.127 235.481 176.553 235.094 175.86L238.174 174.08C238.307 174.333 238.601 174.54 239.054 174.7C239.521 174.873 240.034 174.96 240.594 174.96C241.181 174.96 241.674 174.827 242.074 174.56C242.474 174.307 242.687 173.987 242.714 173.6C241.887 174.067 241.041 174.3 240.174 174.3C238.574 174.3 237.341 173.82 236.474 172.86C235.607 171.887 235.174 170.607 235.174 169.02C235.174 167.42 235.607 166.133 236.474 165.16C237.341 164.187 238.574 163.7 240.174 163.7C241.054 163.7 241.901 163.94 242.714 164.42V164ZM240.674 170.88C241.261 170.88 241.747 170.707 242.134 170.36C242.521 170.013 242.714 169.553 242.714 168.98C242.714 168.42 242.521 167.98 242.134 167.66C241.747 167.34 241.261 167.18 240.674 167.18C240.101 167.18 239.641 167.347 239.294 167.68C238.947 168 238.774 168.447 238.774 169.02C238.774 169.607 238.947 170.067 239.294 170.4C239.641 170.72 240.101 170.88 240.674 170.88ZM251.451 166.92C251.451 167.067 251.545 167.173 251.731 167.24C251.931 167.293 252.285 167.367 252.791 167.46C253.578 167.58 254.245 167.733 254.791 167.92C255.338 168.107 255.818 168.44 256.231 168.92C256.658 169.4 256.871 170.067 256.871 170.92C256.871 171.653 256.645 172.273 256.191 172.78C255.751 173.287 255.171 173.667 254.451 173.92C253.731 174.16 252.958 174.28 252.131 174.28C251.025 174.28 250.071 174.087 249.271 173.7C248.471 173.3 247.858 172.7 247.431 171.9L250.351 170.4C250.498 170.773 250.718 171.047 251.011 171.22C251.305 171.38 251.678 171.46 252.131 171.46C252.478 171.46 252.771 171.42 253.011 171.34C253.265 171.26 253.391 171.127 253.391 170.94C253.391 170.793 253.278 170.68 253.051 170.6C252.838 170.52 252.458 170.42 251.911 170.3C251.138 170.153 250.471 169.987 249.911 169.8C249.351 169.6 248.865 169.28 248.451 168.84C248.038 168.387 247.831 167.787 247.831 167.04C247.831 166.347 248.031 165.753 248.431 165.26C248.845 164.753 249.385 164.373 250.051 164.12C250.718 163.853 251.438 163.72 252.211 163.72C253.118 163.72 253.945 163.907 254.691 164.28C255.438 164.64 256.031 165.167 256.471 165.86L253.551 167.3C253.391 167.033 253.211 166.84 253.011 166.72C252.825 166.6 252.558 166.54 252.211 166.54C251.985 166.54 251.798 166.573 251.651 166.64C251.518 166.707 251.451 166.8 251.451 166.92Z" fill="#484B51"/>
<path d="M29.3452 35V50.6H34.4752V56H18.3052V50.6H23.6452V41.42L21.4552 43.25L18.3352 38.87L23.6452 35H29.3452ZM44.9787 56.42C43.1787 56.42 41.5887 55.96 40.2087 55.04C38.8287 54.12 37.7487 52.84 36.9687 51.2C36.2087 49.54 35.8287 47.64 35.8287 45.5C35.8287 43.36 36.2087 41.47 36.9687 39.83C37.7487 38.17 38.8287 36.88 40.2087 35.96C41.5887 35.04 43.1787 34.58 44.9787 34.58C46.7787 34.58 48.3687 35.04 49.7487 35.96C51.1287 36.88 52.1987 38.17 52.9587 39.83C53.7387 41.47 54.1287 43.36 54.1287 45.5C54.1287 47.64 53.7387 49.54 52.9587 51.2C52.1987 52.84 51.1287 54.12 49.7487 55.04C48.3687 55.96 46.7787 56.42 44.9787 56.42ZM44.9787 50.72C46.0187 50.72 46.8487 50.32 47.4687 49.52C48.1087 48.72 48.4287 47.38 48.4287 45.5C48.4287 43.62 48.1087 42.28 47.4687 41.48C46.8487 40.68 46.0187 40.28 44.9787 40.28C43.9387 40.28 43.0987 40.68 42.4587 41.48C41.8387 42.28 41.5287 43.62 41.5287 45.5C41.5287 47.38 41.8387 48.72 42.4587 49.52C43.0987 50.32 43.9387 50.72 44.9787 50.72ZM66.9122 43.58L72.0422 35H77.7422V56H72.0422V45.47L67.6022 52.88H66.2222L61.7822 45.47V56H56.0822V35H61.7822L66.9122 43.58ZM93.9661 47.45H88.9261V53.24H85.4461V47.45H80.4061V44.3H85.4461V38.75H88.9261V44.3H93.9661V47.45ZM119.126 44.63C119.706 45.21 120.146 45.9 120.446 46.7C120.766 47.48 120.926 48.31 120.926 49.19C120.926 50.41 120.636 51.54 120.056 52.58C119.476 53.62 118.686 54.45 117.686 55.07C116.706 55.67 115.636 55.97 114.476 55.97H109.976V56H104.276V35H113.966C115.066 35 116.076 35.29 116.996 35.87C117.936 36.45 118.676 37.23 119.216 38.21C119.776 39.17 120.056 40.2 120.056 41.3C120.056 42.5 119.746 43.61 119.126 44.63ZM109.976 40.4V42.65L113.966 42.59C114.186 42.59 114.386 42.5 114.566 42.32C114.766 42.14 114.866 41.88 114.866 41.54C114.866 41.18 114.766 40.9 114.566 40.7C114.386 40.5 114.186 40.4 113.966 40.4H109.976ZM114.476 50.57C114.756 50.57 114.996 50.43 115.196 50.15C115.416 49.85 115.526 49.52 115.526 49.16C115.526 48.78 115.416 48.45 115.196 48.17C114.996 47.89 114.756 47.75 114.476 47.75H109.976V50.57H114.476ZM133.833 35H139.533V48.92C139.533 50.38 139.153 51.68 138.393 52.82C137.633 53.96 136.603 54.85 135.303 55.49C134.003 56.11 132.583 56.42 131.043 56.42C129.503 56.42 128.083 56.11 126.783 55.49C125.503 54.85 124.483 53.96 123.723 52.82C122.963 51.68 122.583 50.38 122.583 48.92V35H128.283V48.92C128.283 49.52 128.573 49.98 129.153 50.3C129.753 50.6 130.383 50.75 131.043 50.75C131.823 50.75 132.483 50.6 133.023 50.3C133.563 50 133.833 49.54 133.833 48.92V35ZM151.631 35C153.591 35 155.401 35.47 157.061 36.41C158.721 37.35 160.031 38.63 160.991 40.25C161.971 41.85 162.461 43.63 162.461 45.59C162.461 47.55 161.971 49.32 160.991 50.9C160.031 52.48 158.721 53.73 157.061 54.65C155.421 55.55 153.611 56 151.631 56H142.391V35H151.631ZM151.631 50.6C152.551 50.6 153.401 50.38 154.181 49.94C154.981 49.48 155.611 48.86 156.071 48.08C156.531 47.3 156.761 46.45 156.761 45.53C156.761 44.61 156.531 43.76 156.071 42.98C155.611 42.18 154.981 41.55 154.181 41.09C153.401 40.63 152.551 40.4 151.631 40.4H148.091V50.6H151.631ZM174.064 43.97H185.824V46.19C185.824 48.03 185.334 49.74 184.354 51.32C183.374 52.88 182.054 54.12 180.394 55.04C178.754 55.96 176.984 56.42 175.084 56.42C173.124 56.42 171.314 55.94 169.654 54.98C167.994 54 166.674 52.68 165.694 51.02C164.734 49.36 164.254 47.55 164.254 45.59C164.254 43.63 164.734 41.82 165.694 40.16C166.674 38.5 167.994 37.19 169.654 36.23C171.314 35.25 173.124 34.76 175.084 34.76C176.784 34.76 178.364 35.13 179.824 35.87C181.304 36.59 182.554 37.59 183.574 38.87L179.104 42.41C178.624 41.81 178.034 41.34 177.334 41C176.634 40.64 175.884 40.46 175.084 40.46C174.164 40.46 173.304 40.69 172.504 41.15C171.724 41.61 171.104 42.24 170.644 43.04C170.184 43.82 169.954 44.67 169.954 45.59C169.954 46.51 170.184 47.37 170.644 48.17C171.104 48.95 171.724 49.57 172.504 50.03C173.304 50.49 174.164 50.72 175.084 50.72C175.724 50.72 176.334 50.6 176.914 50.36C177.514 50.12 178.044 49.79 178.504 49.37H174.064V43.97ZM193.647 47.96V50.6H201.567V56H187.947V35H201.417V40.4H193.647V42.56H200.667V47.96H193.647ZM219.222 35V40.4H214.122V56H208.422V40.4H203.352V35H219.222ZM227.017 47.96V50.6H234.937V56H221.317V35H234.787V40.4H227.017V42.56H234.037V47.96H227.017ZM248.382 56L244.812 49.49H243.042V56H237.342V35H246.402C247.722 35 248.932 35.32 250.032 35.96C251.152 36.6 252.032 37.48 252.672 38.6C253.332 39.7 253.662 40.91 253.662 42.23C253.662 43.43 253.382 44.55 252.822 45.59C252.282 46.63 251.532 47.49 250.572 48.17L254.922 56H248.382ZM243.042 40.4V44.09H246.402C246.922 44.09 247.362 43.91 247.722 43.55C248.082 43.17 248.262 42.73 248.262 42.23C248.262 41.73 248.082 41.3 247.722 40.94C247.362 40.58 246.922 40.4 246.402 40.4H243.042ZM264.526 56.42C262.386 56.42 260.596 55.96 259.156 55.04C257.736 54.1 256.726 52.83 256.126 51.23L260.926 48.44C261.306 49.3 261.786 49.92 262.366 50.3C262.946 50.66 263.716 50.84 264.676 50.84C265.276 50.84 265.746 50.71 266.086 50.45C266.446 50.17 266.626 49.89 266.626 49.61C266.626 49.35 266.546 49.13 266.386 48.95C266.246 48.77 265.936 48.58 265.456 48.38C264.976 48.18 264.216 47.94 263.176 47.66C259.056 46.52 256.996 44.29 256.996 40.97C256.996 39.67 257.326 38.54 257.986 37.58C258.646 36.6 259.506 35.86 260.566 35.36C261.646 34.84 262.806 34.58 264.046 34.58C265.766 34.58 267.286 34.99 268.606 35.81C269.926 36.61 270.966 37.78 271.726 39.32L266.836 42.17C266.496 41.45 266.106 40.95 265.666 40.67C265.226 40.37 264.686 40.22 264.046 40.22C263.746 40.22 263.446 40.29 263.146 40.43C262.846 40.57 262.696 40.75 262.696 40.97C262.696 41.21 262.736 41.41 262.816 41.57C262.916 41.71 263.166 41.89 263.566 42.11C263.986 42.33 264.656 42.58 265.576 42.86C267.576 43.46 269.196 44.3 270.436 45.38C271.696 46.44 272.326 47.97 272.326 49.97C272.326 51.29 271.976 52.44 271.276 53.42C270.596 54.38 269.666 55.12 268.486 55.64C267.306 56.16 265.986 56.42 264.526 56.42Z" fill="#484B51"/>
<path d="M89 97L94.6129 114.275H112.776L98.0818 124.951L103.695 142.225L89 131.549L74.3054 142.225L79.9182 124.951L65.2236 114.275H83.3871L89 97Z" fill="#66E38A"/>
<path d="M36 97L41.6129 114.275H59.7764L45.0818 124.951L50.6946 142.225L36 131.549L21.3054 142.225L26.9182 124.951L12.2236 114.275H30.3871L36 97Z" fill="#66E38A"/>
<path d="M195 97L200.613 114.275H218.776L204.082 124.951L209.695 142.225L195 131.549L180.305 142.225L185.918 124.951L171.224 114.275H189.387L195 97Z" fill="#66E38A"/>
<path d="M142 97L147.613 114.275H165.776L151.082 124.951L156.695 142.225L142 131.549L127.305 142.225L132.918 124.951L118.224 114.275H136.387L142 97Z" fill="#66E38A"/>
<path d="M248 97L253.613 114.275H271.776L257.082 124.951L262.695 142.225L248 131.549L233.305 142.225L238.918 124.951L224.224 114.275H242.387L248 97Z" fill="#66E38A"/>
</svg>
