<svg width="278" height="273" viewBox="0 0 278 273" fill="none" xmlns="http://www.w3.org/2000/svg">
<path d="M193.277 13.1898C179.169 21.2608 169.223 34.8327 157.161 45.7246C142.266 59.1737 123.808 68.6399 104.195 72.8885C88.0604 76.3838 71.1471 76.4335 55.5702 81.9034C25.2078 92.5652 4.366 124.21 3.81319 156.384C3.26039 188.559 21.5923 219.728 48.4942 237.386C57.6295 243.383 67.6899 247.968 78.2088 250.929C97.9967 256.498 118.976 256.251 139.422 254.123C174.739 250.446 211.76 230.392 234.017 202.117C243.945 189.504 252.326 175.684 259.003 161.091C269.966 137.127 276.351 111.041 277.442 84.6991C278.38 62.0644 277.424 36.9831 259.489 20.4933C241.595 4.04036 214.327 1.14636 193.277 13.1898Z" fill="#11A23B"/>
<path opacity="0.7" d="M193.277 13.1898C179.169 21.2608 169.223 34.8327 157.161 45.7246C142.266 59.1737 123.808 68.6399 104.195 72.8885C88.0604 76.3838 71.1471 76.4335 55.5702 81.9034C25.2078 92.5652 4.366 124.21 3.81319 156.384C3.26039 188.559 21.5923 219.728 48.4942 237.386C57.6295 243.383 67.6899 247.968 78.2088 250.929C97.9967 256.498 118.976 256.251 139.422 254.123C174.739 250.446 211.76 230.392 234.017 202.117C243.945 189.504 252.326 175.684 259.003 161.091C269.966 137.127 276.351 111.041 277.442 84.6991C278.38 62.0644 277.424 36.9831 259.489 20.4933C241.595 4.04036 214.327 1.14636 193.277 13.1898Z" fill="#41B7FF"/>
<path d="M156.162 272.275C220.199 272.275 272.111 258.294 272.111 241.049C272.111 223.803 220.199 209.822 156.162 209.822C92.1243 209.822 40.2118 223.803 40.2118 241.049C40.2118 258.294 92.1243 272.275 156.162 272.275Z" fill="#92E3A9"/>
<path opacity="0.5" d="M156.162 272.275C220.199 272.275 272.111 258.294 272.111 241.049C272.111 223.803 220.199 209.822 156.162 209.822C92.1243 209.822 40.2118 223.803 40.2118 241.049C40.2118 258.294 92.1243 272.275 156.162 272.275Z" fill="white"/>
<path d="M176.083 21.866V98.2788C176.083 101.475 173.493 104.066 170.296 104.066H33.9816C30.785 104.066 28.1942 101.475 28.1942 98.2788V21.866C28.1942 18.6694 30.785 16.0786 33.9816 16.0786H170.296C173.493 16.0786 176.083 18.6694 176.083 21.866Z" fill="white"/>
<path d="M176.083 21.866V24.1574H28.1942V21.866C28.1942 18.6694 30.785 16.0786 33.9816 16.0786H170.296C173.493 16.0786 176.083 18.6694 176.083 21.866Z" fill="#92E3A9"/>
<path d="M176.083 21.866V98.2788C176.083 101.475 173.493 104.066 170.296 104.066H33.9816C30.785 104.066 28.1942 101.475 28.1942 98.2788V21.866C28.1942 18.6694 30.785 16.0786 33.9816 16.0786H170.296C173.493 16.0786 176.083 18.6694 176.083 21.866Z" stroke="#263238" stroke-miterlimit="10" stroke-linecap="round" stroke-linejoin="round"/>
<path d="M176.083 21.866V24.1574H28.1942V21.866C28.1942 18.6694 30.785 16.0786 33.9816 16.0786H170.296C173.493 16.0786 176.083 18.6694 176.083 21.866Z" stroke="#263238" stroke-miterlimit="10" stroke-linecap="round" stroke-linejoin="round"/>
<path d="M44.8023 20.1177C44.8023 20.9336 44.1409 21.595 43.3249 21.595C42.509 21.595 41.8475 20.9336 41.8475 20.1177C41.8475 19.3017 42.509 18.6403 43.3249 18.6403C44.1409 18.6403 44.8023 19.3017 44.8023 20.1177Z" fill="#263238"/>
<path d="M52.5294 20.1177C52.5294 20.9336 51.8679 21.595 51.052 21.595C50.236 21.595 49.5746 20.9336 49.5746 20.1177C49.5746 19.3017 50.236 18.6403 51.052 18.6403C51.8679 18.6403 52.5294 19.3017 52.5294 20.1177Z" fill="#263238"/>
<path d="M58.779 21.595C59.595 21.595 60.2564 20.9336 60.2564 20.1177C60.2564 19.3017 59.595 18.6403 58.779 18.6403C57.9631 18.6403 57.3016 19.3017 57.3016 20.1177C57.3016 20.9336 57.9631 21.595 58.779 21.595Z" fill="#263238"/>
<path d="M81.1621 55.4469H39.3505C38.0328 55.4469 36.9647 54.3788 36.9647 53.0611V32.9473C36.9647 31.6296 38.0328 30.5615 39.3505 30.5615H81.1621C82.4798 30.5615 83.5479 31.6296 83.5479 32.9473V53.0611C83.5479 54.3788 82.4798 55.4469 81.1621 55.4469Z" stroke="#263238" stroke-miterlimit="10" stroke-linecap="round" stroke-linejoin="round"/>
<path d="M39.7035 52.3182H80.0959" stroke="#263238" stroke-miterlimit="10" stroke-linecap="round" stroke-linejoin="round"/>
<path d="M47.3885 47.5666H42.7023V52.2529H47.3885V47.5666Z" fill="#92E3A9" stroke="#263238" stroke-miterlimit="10"/>
<path d="M54.2491 41.4049H49.5629V52.3182H54.2491V41.4049Z" fill="#92E3A9" stroke="#263238" stroke-miterlimit="10"/>
<path d="M61.9762 43.2819H57.2899V52.4281H61.9762V43.2819Z" fill="#92E3A9" stroke="#263238" stroke-miterlimit="10"/>
<path d="M70.0936 34.1725H65.4073V52.1152H70.0936V34.1725Z" fill="#92E3A9" stroke="#263238" stroke-miterlimit="10"/>
<path d="M78.2105 34.3102H73.5243V52.2529H78.2105V34.3102Z" fill="#92E3A9" stroke="#263238" stroke-miterlimit="10"/>
<path d="M141.3 56.7361C148.538 56.7361 154.406 50.8685 154.406 43.6304C154.406 36.3923 148.538 30.5247 141.3 30.5247C134.062 30.5247 128.194 36.3923 128.194 43.6304C128.194 50.8685 134.062 56.7361 141.3 56.7361Z" fill="#92E3A9" stroke="#263238" stroke-miterlimit="10"/>
<path d="M142.374 51.8061V53.1484H140.177V51.8061C138.322 51.3425 137.127 49.7805 137.127 47.7302V47.1199L139.616 46.8515V47.4858C139.616 48.7304 140.25 49.4869 141.276 49.4869C142.301 49.4869 142.936 48.8526 142.936 47.8518C142.936 46.6556 141.813 45.6308 140.495 44.5323C138.933 43.2392 137.371 41.7011 137.371 39.5293C137.371 37.406 138.396 35.893 140.177 35.4534V34.1111H142.374V35.4534C144.18 35.8685 145.229 37.3814 145.229 39.5532V39.9922L142.74 40.2605V39.7724C142.74 38.4547 142.227 37.7713 141.324 37.7713C140.422 37.7713 139.909 38.3325 139.909 39.4064C139.909 40.6026 141.056 41.6028 142.35 42.7259C143.887 44.0435 145.473 45.5571 145.473 47.7289C145.473 49.8044 144.253 51.3665 142.374 51.8061Z" fill="#263238"/>
<path d="M35.874 68.1634H39.7036" stroke="#263238" stroke-miterlimit="10" stroke-linecap="round" stroke-linejoin="round"/>
<path d="M35.874 75.5607H39.7036" stroke="#263238" stroke-miterlimit="10" stroke-linecap="round" stroke-linejoin="round"/>
<path d="M35.874 82.9579H39.7036" stroke="#263238" stroke-miterlimit="10" stroke-linecap="round" stroke-linejoin="round"/>
<path d="M35.874 90.3552H39.7036" stroke="#263238" stroke-miterlimit="10" stroke-linecap="round" stroke-linejoin="round"/>
<path d="M48.1385 95.946V92.9725" stroke="#263238" stroke-miterlimit="10" stroke-linecap="round" stroke-linejoin="round"/>
<path d="M54.2052 95.946V92.9725" stroke="#263238" stroke-miterlimit="10" stroke-linecap="round" stroke-linejoin="round"/>
<path d="M60.2719 95.946V92.9725" stroke="#263238" stroke-miterlimit="10" stroke-linecap="round" stroke-linejoin="round"/>
<path d="M66.3379 95.946V92.9725" stroke="#263238" stroke-miterlimit="10" stroke-linecap="round" stroke-linejoin="round"/>
<path d="M72.4045 95.946V92.9725" stroke="#263238" stroke-miterlimit="10" stroke-linecap="round" stroke-linejoin="round"/>
<path d="M78.4706 95.946V92.9725" stroke="#263238" stroke-miterlimit="10" stroke-linecap="round" stroke-linejoin="round"/>
<path d="M84.5372 95.946V92.9725" stroke="#263238" stroke-miterlimit="10" stroke-linecap="round" stroke-linejoin="round"/>
<path d="M90.6031 95.946V92.9725" stroke="#263238" stroke-miterlimit="10" stroke-linecap="round" stroke-linejoin="round"/>
<path d="M96.6698 95.946V92.9725" stroke="#263238" stroke-miterlimit="10" stroke-linecap="round" stroke-linejoin="round"/>
<path d="M102.736 95.946V92.9725" stroke="#263238" stroke-miterlimit="10" stroke-linecap="round" stroke-linejoin="round"/>
<path d="M108.802 95.946V92.9725" stroke="#263238" stroke-miterlimit="10" stroke-linecap="round" stroke-linejoin="round"/>
<path d="M114.869 95.946V92.9725" stroke="#263238" stroke-miterlimit="10" stroke-linecap="round" stroke-linejoin="round"/>
<path d="M120.935 95.946V92.9725" stroke="#263238" stroke-miterlimit="10" stroke-linecap="round" stroke-linejoin="round"/>
<path d="M127.002 95.946V92.9725" stroke="#263238" stroke-miterlimit="10" stroke-linecap="round" stroke-linejoin="round"/>
<path d="M133.068 95.946V92.9725" stroke="#263238" stroke-miterlimit="10" stroke-linecap="round" stroke-linejoin="round"/>
<path d="M138.904 95.946V92.9725" stroke="#263238" stroke-miterlimit="10" stroke-linecap="round" stroke-linejoin="round"/>
<path d="M144.741 95.946V92.9725" stroke="#263238" stroke-miterlimit="10" stroke-linecap="round" stroke-linejoin="round"/>
<path d="M150.577 95.946V92.9725" stroke="#263238" stroke-miterlimit="10" stroke-linecap="round" stroke-linejoin="round"/>
<path d="M166.017 63.6336V92.3822C166.017 94.3509 164.013 95.9454 161.539 95.9454H40.3521C38.7079 95.9454 37.2673 95.2413 36.4927 94.1887C36.1016 93.6591 35.8746 93.0423 35.8746 92.3822V63.6336C35.8746 61.6648 37.879 60.0704 40.3527 60.0704H161.54C164.013 60.0704 166.017 61.6648 166.017 63.6336Z" stroke="#92E3A9" stroke-miterlimit="10" stroke-linecap="round" stroke-linejoin="round"/>
<path d="M129.135 7.96107L90.4499 60.0704L75.6548 79.9986L59.4953 69.7074L39.7229 95.946H39.4365C38.1285 95.946 36.9822 95.2419 36.3654 94.1893L58.5856 64.6991L74.7321 74.9775L85.7954 60.0704L126.131 5.73756L129.135 7.96107Z" fill="#263238"/>
<path d="M119.318 8.62185L133.54 0L129.606 14.9096L127.1 8.01215L119.318 8.62185Z" fill="#263238"/>
<path d="M253.872 172.691H26.4854L1 195.35" stroke="#263238" stroke-miterlimit="10" stroke-linecap="round" stroke-linejoin="round"/>
<path d="M26.6289 156.823V112.758" stroke="#263238" stroke-miterlimit="10" stroke-linecap="round" stroke-linejoin="round"/>
<path d="M26.6289 170.133V161.61" stroke="#263238" stroke-miterlimit="10" stroke-linecap="round" stroke-linejoin="round"/>
<path d="M240.185 65.4918C240.185 65.4918 240.185 62.8293 236.455 59.0993C232.725 55.3693 230.333 53.2428 230.333 53.2428C230.333 53.2428 228.468 59.365 231.927 63.0944C234.473 65.7239 237.236 68.1349 240.185 70.3022V65.4918H240.185Z" fill="#92E3A9"/>
<path d="M234.775 82.1239C234.775 82.1239 234.775 79.4614 231.045 75.7314C227.315 72.0014 224.924 69.8755 224.924 69.8755C224.924 69.8755 223.058 75.9977 226.518 79.7277C229.066 82.3553 231.828 84.7664 234.775 86.9356V82.1239Z" fill="#92E3A9"/>
<path d="M239.951 70.0281C239.951 70.0281 240.23 67.3791 244.334 64.0636C248.438 60.748 251.042 58.8879 251.042 58.8879C251.042 58.8879 252.249 65.1944 248.411 68.5145C245.602 70.855 242.602 72.9557 239.442 74.7938L239.951 70.0281Z" fill="#92E3A9"/>
<path d="M233.415 89.6692C233.415 89.6692 233.974 87.0655 238.397 84.2006C242.821 81.3357 245.605 79.7542 245.605 79.7542C245.605 79.7542 246.146 86.1332 242.001 89.0563C238.962 91.0865 235.759 92.858 232.424 94.3535L233.415 89.6692Z" fill="#92E3A9"/>
<path d="M234.645 111.081C234.645 111.081 234.645 108.418 238.37 104.693C242.096 100.967 244.497 98.8368 244.497 98.8368C244.497 98.8368 246.362 104.963 242.898 108.688C240.354 111.318 237.594 113.729 234.645 115.896V111.081H234.645Z" fill="#92E3A9"/>
<path d="M234.581 116.31C234.581 116.31 234.96 113.675 231.797 109.454C228.635 105.233 226.567 102.782 226.567 102.782C226.567 102.782 223.865 108.58 226.752 112.764C228.9 115.722 231.292 118.494 233.901 121.053L234.581 116.31Z" fill="#92E3A9"/>
<path d="M230.906 131.798C230.906 131.798 230.906 129.135 234.631 125.41C238.357 121.684 240.757 119.554 240.757 119.554C240.757 119.554 242.622 125.68 239.158 129.405C236.615 132.035 233.854 134.446 230.906 136.613V131.798Z" fill="#92E3A9"/>
<path d="M233.392 145.843C233.392 145.843 232.721 143.267 235.388 138.708C238.055 134.149 239.83 131.5 239.83 131.5C239.83 131.5 243.182 136.955 240.781 141.438C238.981 144.62 236.918 147.645 234.614 150.483L233.392 145.843Z" fill="#92E3A9"/>
<path d="M240.523 64.8297C240.334 67.6015 239.993 70.361 239.501 73.096C238.028 80.7092 234.342 85.6237 232.869 92.4979C231.397 99.3721 235.626 108.238 234.495 117.072C233.365 125.906 229.923 130.816 230.892 136.712C231.86 142.609 237.031 158.569 237.031 158.569" stroke="#263238" stroke-width="1.1775" stroke-linecap="round" stroke-linejoin="round"/>
<path d="M239.915 71.799L243.933 68.713" stroke="#263238" stroke-width="1.1775" stroke-linecap="round" stroke-linejoin="round"/>
<path d="M240.1 68.2487L238.419 65.2578" stroke="#263238" stroke-width="1.1775" stroke-linecap="round" stroke-linejoin="round"/>
<path d="M233.095 92.1649C233.095 92.1649 236.456 89.6421 239.915 87.1198" stroke="#263238" stroke-width="1.1775" stroke-linecap="round" stroke-linejoin="round"/>
<path d="M234.775 86.9032C234.775 86.9032 231.973 81.4075 228.797 77.7628" stroke="#263238" stroke-width="1.1775" stroke-linecap="round" stroke-linejoin="round"/>
<path d="M234.775 114.869C236.701 111.33 239.129 108.089 241.983 105.247" stroke="#263238" stroke-width="1.1775" stroke-linecap="round" stroke-linejoin="round"/>
<path d="M234.122 118.608C233.1 116.202 231.881 113.885 230.477 111.679C228.513 108.783 228.224 108.409 228.224 108.409" stroke="#263238" stroke-width="1.1775" stroke-linecap="round" stroke-linejoin="round"/>
<path d="M230.906 136.695C231.757 134.579 232.769 132.53 233.933 130.568C235.097 128.75 236.41 127.031 237.856 125.428" stroke="#263238" stroke-width="1.1775" stroke-linecap="round" stroke-linejoin="round"/>
<path d="M234.609 150.479C234.609 150.479 234.217 147.29 235.618 144.583C237.019 141.876 238.604 138.321 239.263 136.925" stroke="#263238" stroke-width="1.1775" stroke-linecap="round" stroke-linejoin="round"/>
<path d="M215.774 101.066C215.774 101.066 215.481 99.3993 217.419 96.6559C219.356 93.9126 220.622 92.3091 220.622 92.3091C220.622 92.3091 222.455 95.9447 220.689 98.6609C219.377 100.582 217.906 102.391 216.292 104.067L215.774 101.066Z" fill="#92E3A9"/>
<path d="M220.973 110.909C220.973 110.909 220.68 109.238 222.612 106.495C224.545 103.751 225.82 102.156 225.82 102.156C225.82 102.156 227.654 105.796 225.888 108.508C224.577 110.43 223.106 112.239 221.491 113.914L220.973 110.909Z" fill="#92E3A9"/>
<path d="M216.414 103.886C216.414 103.886 215.963 102.256 213.017 100.625C210.071 98.9945 208.247 98.1023 208.247 98.1023C208.247 98.1023 208.175 102.156 210.95 103.859C212.966 105.019 215.076 106.009 217.256 106.819L216.414 103.886Z" fill="#92E3A9"/>
<path d="M222.644 115.491C222.644 115.491 222.009 113.918 218.923 112.603C215.837 111.288 213.914 110.603 213.914 110.603C213.914 110.603 214.269 114.658 217.197 116.041C219.324 116.984 221.525 117.748 223.779 118.325L222.644 115.491Z" fill="#92E3A9"/>
<path d="M224.198 129.054C224.198 129.054 223.909 127.383 221.166 125.45C218.423 123.518 216.689 122.441 216.689 122.441C216.689 122.441 216.184 126.496 218.761 128.446C220.642 129.811 222.634 131.017 224.716 132.05L224.198 129.054Z" fill="#92E3A9"/>
<path d="M224.802 132.325C224.802 132.325 224.279 130.712 225.802 127.725C227.324 124.739 228.36 122.973 228.36 122.973C228.36 122.973 230.689 126.315 229.329 129.252C228.296 131.34 227.09 133.338 225.725 135.226L224.802 132.325Z" fill="#92E3A9"/>
<path d="M229.482 145.794C229.482 145.794 229.676 144.109 232.302 142.024C234.929 139.938 236.6 138.767 236.6 138.767C236.6 138.767 237.334 142.772 234.875 144.88C233.075 146.352 231.155 147.673 229.136 148.826L229.482 145.794Z" fill="#92E3A9"/>
<path d="M228.788 141.641C228.788 141.641 228.5 139.97 225.757 138.037C223.013 136.104 221.284 135.028 221.284 135.028C221.284 135.028 220.779 139.082 223.351 141.032C225.233 142.399 227.227 143.604 229.311 144.636L228.788 141.641Z" fill="#92E3A9"/>
<path d="M228.752 150.718C228.752 150.718 228.896 149.028 226.734 146.465C224.572 143.902 223.166 142.411 223.166 142.411C223.166 142.411 221.653 146.195 223.649 148.745C225.122 150.548 226.744 152.225 228.496 153.759L228.752 150.718Z" fill="#92E3A9"/>
<path d="M215.486 100.674C215.906 102.393 216.42 104.089 217.027 105.751C218.774 110.364 221.617 113.044 223.289 117.198C224.96 121.351 223.289 127.365 224.937 132.78C226.586 138.195 229.298 140.888 229.32 144.709C229.343 148.529 227.843 159.084 227.843 159.084" stroke="#263238" stroke-width="1.1775" stroke-linecap="round" stroke-linejoin="round"/>
<path d="M216.625 104.99L213.774 103.495" stroke="#263238" stroke-width="1.1775" stroke-linecap="round" stroke-linejoin="round"/>
<path d="M216.125 102.787L216.855 100.729" stroke="#263238" stroke-width="1.1775" stroke-linecap="round" stroke-linejoin="round"/>
<path d="M223.117 117.022C223.117 117.022 220.734 115.806 218.292 114.599" stroke="#263238" stroke-width="1.1775" stroke-linecap="round" stroke-linejoin="round"/>
<path d="M221.491 113.932C222.191 111.717 223.115 109.581 224.248 107.553" stroke="#263238" stroke-width="1.1775" stroke-linecap="round" stroke-linejoin="round"/>
<path d="M224.527 131.442C222.938 129.431 221.065 127.662 218.968 126.189" stroke="#263238" stroke-width="1.1775" stroke-linecap="round" stroke-linejoin="round"/>
<path d="M225.342 133.717C225.72 132.1 226.233 130.518 226.874 128.986C227.775 126.955 227.928 126.689 227.928 126.689" stroke="#263238" stroke-width="1.1775" stroke-linecap="round" stroke-linejoin="round"/>
<path d="M229.194 147.591C229.194 147.591 231.081 145.276 232.262 144.406C232.97 143.882 233.636 143.302 234.252 142.672" stroke="#263238" stroke-width="1.1775" stroke-linecap="round" stroke-linejoin="round"/>
<path d="M229.32 144.708C228.556 143.474 227.699 142.299 226.757 141.194C225.829 140.181 224.82 139.245 223.739 138.396" stroke="#263238" stroke-width="1.1775" stroke-linecap="round" stroke-linejoin="round"/>
<path d="M228.495 153.759C228.401 152.466 227.963 151.222 227.225 150.155C226.05 148.605 224.667 146.551 224.108 145.745" stroke="#263238" stroke-width="1.1775" stroke-linecap="round" stroke-linejoin="round"/>
<path d="M240.911 177.296H223.932C223.233 177.296 222.666 176.729 222.666 176.03L220.229 157.24H244.613L242.177 176.03C242.177 176.729 241.61 177.296 240.911 177.296Z" fill="#263238"/>
<path d="M244.398 160.421H220.229C219.181 160.421 218.329 159.576 218.319 158.529C218.319 157.476 219.172 156.624 220.225 156.624C220.226 156.624 220.228 156.624 220.229 156.624H244.398C245.45 156.621 246.305 157.472 246.307 158.524C246.307 158.526 246.307 158.528 246.307 158.529C246.298 159.577 245.445 160.421 244.398 160.421Z" fill="#263238"/>
<path d="M189.91 85.272C189.91 96.4109 182.142 105.745 171.722 108.14C171.696 108.148 171.679 108.148 171.653 108.157C171.037 108.294 170.422 108.414 169.788 108.508C168.693 108.662 167.572 108.747 166.434 108.747C153.464 108.747 142.95 98.2329 142.95 85.2713C142.95 72.5923 153.003 62.2577 165.57 61.8129C165.784 61.7954 166.006 61.7954 166.229 61.7954C166.297 61.787 166.366 61.787 166.434 61.787C166.511 61.787 166.597 61.787 166.673 61.7954C169.942 61.8213 173.047 62.5228 175.87 63.772C184.135 67.3998 189.91 75.6641 189.91 85.272Z" fill="#92E3A9"/>
<path opacity="0.4" d="M175.871 63.7726C148.759 62.3612 148.631 92.4585 148.631 92.4585C148.631 92.4585 144.49 82.6372 151.249 71.755C155.021 65.6722 161.601 62.9858 166.673 61.7967C169.942 61.8219 173.047 62.5235 175.871 63.7726Z" fill="white"/>
<path d="M189.91 85.272C189.91 96.4367 182.107 105.787 171.653 108.157C169.976 108.542 168.231 108.747 166.435 108.747C153.465 108.747 142.95 98.2329 142.95 85.2713C142.95 72.5923 153.003 62.2577 165.57 61.8129C165.853 61.7961 166.144 61.787 166.434 61.787C179.395 61.7877 189.91 72.302 189.91 85.272Z" stroke="#263238" stroke-miterlimit="10" stroke-linecap="round" stroke-linejoin="round"/>
<path d="M189.91 85.272C189.91 96.4367 182.107 105.787 171.653 108.157C171.371 108.174 171.08 108.183 170.789 108.183C157.82 108.183 147.314 97.6684 147.314 84.6985C147.314 73.5337 155.116 64.1832 165.57 61.8129C165.853 61.7961 166.144 61.787 166.434 61.787C179.395 61.7877 189.91 72.302 189.91 85.272Z" stroke="#263238" stroke-miterlimit="10" stroke-linecap="round" stroke-linejoin="round"/>
<path d="M174.523 99.965L175.132 102.445L171.074 103.44L170.465 100.96C166.829 100.944 163.912 98.6001 162.983 94.8132L162.707 93.6863L167.184 92.0621L167.471 93.2343C168.034 95.5341 169.549 96.6443 171.443 96.1794C173.336 95.7145 174.221 94.2553 173.768 92.4067C173.226 90.1987 170.688 88.8132 167.755 87.3817C164.284 85.7 160.702 83.567 159.718 79.5551C158.756 75.6324 159.963 72.3725 163.057 70.7541L162.448 68.2746L166.505 67.2795L167.114 69.7591C170.638 69.7067 173.262 72.0272 174.246 76.0391L174.445 76.8505L169.968 78.4741L169.747 77.5728C169.15 75.1378 167.893 74.1078 166.225 74.5171C164.558 74.9264 163.864 76.1949 164.352 78.1792C164.893 80.3872 167.465 81.7165 170.363 83.2043C173.801 84.9435 177.417 87.0196 178.401 91.0315C179.342 94.863 177.795 98.3014 174.523 99.965Z" stroke="#263238" stroke-miterlimit="10"/>
<path opacity="0.3" d="M174.523 99.965L175.132 102.445L171.074 103.44L170.465 100.96C166.829 100.944 163.912 98.6001 162.983 94.8132L162.707 93.6863L167.184 92.0621L167.471 93.2343C168.034 95.5341 169.549 96.6443 171.443 96.1794C173.336 95.7145 174.221 94.2553 173.768 92.4067C173.226 90.1987 170.688 88.8132 167.755 87.3817C164.284 85.7 160.702 83.567 159.718 79.5551C158.756 75.6324 159.963 72.3725 163.057 70.7541L162.448 68.2746L166.505 67.2795L167.114 69.7591C170.638 69.7067 173.262 72.0272 174.246 76.0391L174.445 76.8505L169.968 78.4741L169.747 77.5728C169.15 75.1378 167.893 74.1078 166.225 74.5171C164.558 74.9264 163.864 76.1949 164.352 78.1792C164.893 80.3872 167.465 81.7165 170.363 83.2043C173.801 84.9435 177.417 87.0196 178.401 91.0315C179.342 94.863 177.795 98.3014 174.523 99.965Z" fill="black"/>
<path d="M154.436 105.454L159.396 105.226" stroke="#263238" stroke-miterlimit="10" stroke-linecap="round" stroke-linejoin="round"/>
<path d="M152.049 103.807L156.378 103.44" stroke="#263238" stroke-miterlimit="10" stroke-linecap="round" stroke-linejoin="round"/>
<path d="M150.107 102.066L154.436 101.699" stroke="#263238" stroke-miterlimit="10" stroke-linecap="round" stroke-linejoin="round"/>
<path d="M149.516 68.9884H153.222" stroke="#263238" stroke-miterlimit="10" stroke-linecap="round" stroke-linejoin="round"/>
<path d="M151.345 67.2789L155.035 67.1114" stroke="#263238" stroke-miterlimit="10" stroke-linecap="round" stroke-linejoin="round"/>
<path d="M153.656 65.5694L157.551 65.2028" stroke="#263238" stroke-miterlimit="10" stroke-linecap="round" stroke-linejoin="round"/>
<path opacity="0.3" d="M171.721 108.14C171.695 108.148 171.678 108.148 171.653 108.157C169.976 108.542 168.23 108.747 166.434 108.747C153.464 108.747 142.95 98.2329 142.95 85.2713C142.95 72.5923 153.003 62.2577 165.57 61.8129C165.784 61.7954 166.006 61.7954 166.229 61.7954C160.505 63.6006 150.906 68.2119 148.34 77.8281C144.695 91.4828 152.891 106.994 171.721 108.14Z" fill="black"/>
<path opacity="0.1" d="M189.91 85.272C189.91 96.4109 182.142 105.745 171.722 108.14C171.696 108.148 171.679 108.148 171.653 108.157C171.037 108.294 170.422 108.414 169.788 108.508L175.871 63.7726C184.135 67.3998 189.91 75.6641 189.91 85.272Z" fill="black"/>
<path d="M203.23 48.3133C199.329 53.8317 192.211 55.7306 186.222 53.2498C186.197 53.2414 186.162 53.2239 186.137 53.2155C185.692 53.0273 185.247 52.8133 184.811 52.5741C184.34 52.3174 183.887 52.0349 183.442 51.7187C177.034 47.1928 175.512 38.3298 180.037 31.9218C184.392 25.762 192.751 24.1191 199.081 28.0379C199.192 28.098 199.295 28.1665 199.398 28.2344C199.543 28.3198 199.689 28.4226 199.834 28.5254C200.057 28.6793 200.271 28.8422 200.476 29.0129C206.327 33.6494 207.602 42.1361 203.23 48.3133Z" fill="#92E3A9"/>
<path opacity="0.4" d="M181.805 48.5067C181.805 48.5067 179.48 41.6726 182.568 36.6437C186.443 30.3346 192.388 27.4613 200.475 29.013C200.475 29.013 196.089 26.0531 188.751 28.1537C181.415 30.2537 177.478 40.3498 181.805 48.5067Z" fill="white"/>
<path d="M203.229 48.3166C199.331 53.8311 192.212 55.7262 186.221 53.2473C185.259 52.8522 184.325 52.344 183.437 51.7169C177.031 47.189 175.508 38.3247 180.033 31.9232C184.459 25.6606 193.032 24.0649 199.395 28.2326C199.541 28.3225 199.687 28.4201 199.831 28.5216C206.234 33.0462 207.756 41.9105 203.229 48.3166Z" stroke="#263238" stroke-miterlimit="10" stroke-linecap="round" stroke-linejoin="round"/>
<path d="M203.229 48.3166C199.331 53.8311 192.212 55.7262 186.221 53.2473C186.076 53.1574 185.929 53.0598 185.786 52.9583C179.38 48.4304 177.861 39.5694 182.389 33.1633C186.286 27.6488 193.405 25.7537 199.396 28.2326C199.541 28.3225 199.688 28.4201 199.832 28.5216C206.234 33.0462 207.756 41.9105 203.229 48.3166Z" stroke="#263238" stroke-miterlimit="10" stroke-linecap="round" stroke-linejoin="round"/>
<path d="M190.499 50.2027L189.934 51.6399L187.582 50.7147L188.148 49.2774C186.357 47.9998 185.735 45.8242 186.598 43.6291L186.855 42.9761L189.633 43.7364L189.366 44.416C188.842 45.7492 189.203 46.8257 190.301 47.2576C191.398 47.6888 192.344 47.277 192.766 46.2056C193.269 44.9254 192.499 43.355 191.55 41.6241C190.423 39.5816 189.398 37.278 190.313 34.9523C191.207 32.679 192.942 31.49 195.034 31.7706L195.599 30.3333L197.951 31.2579L197.386 32.6952C199.144 33.8997 199.631 35.9616 198.716 38.2872L198.531 38.7573L195.753 37.9969L195.959 37.4745C196.513 36.0637 196.252 35.1159 195.286 34.7363C194.319 34.3562 193.533 34.7409 193.081 35.8911C192.578 37.1706 193.385 38.7256 194.297 40.472C195.388 42.5312 196.449 44.8194 195.535 47.1444C194.661 49.3654 192.697 50.524 190.499 50.2027Z" stroke="#263238" stroke-miterlimit="10"/>
<path opacity="0.3" d="M190.499 50.2027L189.934 51.6399L187.582 50.7147L188.148 49.2774C186.357 47.9998 185.735 45.8242 186.598 43.6291L186.855 42.9761L189.633 43.7364L189.366 44.416C188.842 45.7492 189.203 46.8257 190.301 47.2576C191.398 47.6888 192.344 47.277 192.766 46.2056C193.269 44.9254 192.499 43.355 191.55 41.6241C190.423 39.5816 189.398 37.278 190.313 34.9523C191.207 32.679 192.942 31.49 195.034 31.7706L195.599 30.3333L197.951 31.2579L197.386 32.6952C199.144 33.8997 199.631 35.9616 198.716 38.2872L198.531 38.7573L195.753 37.9969L195.959 37.4745C196.513 36.0637 196.252 35.1159 195.286 34.7363C194.319 34.3562 193.533 34.7409 193.081 35.8911C192.578 37.1706 193.385 38.7256 194.297 40.472C195.388 42.5312 196.449 44.8194 195.535 47.1444C194.661 49.3654 192.697 50.524 190.499 50.2027Z" fill="black"/>
<path opacity="0.3" d="M199.081 28.0373C195.179 27.3442 190.286 26.9595 187.634 28.6619C182.766 31.7848 179.738 35.7197 179.78 42.1019C179.823 48.4841 185.786 52.9583 185.786 52.9583L186.137 53.2149C185.204 52.8212 184.297 52.3253 183.442 51.7175C177.034 47.1916 175.511 38.3286 180.037 31.9205C184.392 25.7614 192.75 24.1192 199.081 28.0373Z" fill="black"/>
<path opacity="0.1" d="M203.23 48.3134C199.329 53.8318 192.211 55.7307 186.223 53.2499C186.197 53.2415 186.163 53.224 186.137 53.2156C185.693 53.0275 185.248 52.8134 184.811 52.5742L200.476 29.013C206.327 33.6495 207.602 42.1362 203.23 48.3134Z" fill="black"/>
<path d="M195.912 230.389C189.857 237.577 182.747 243.876 174.677 248.718C172.15 250.23 169.567 251.576 166.922 252.765C148.553 261.024 127.617 261.559 108.036 256.812C66.872 246.837 45.0306 210.501 42.2594 170.164C41.5114 159.26 39.8426 147.488 44.2592 137.119C48.6371 126.836 57.6049 120.317 67.7067 115.829C75.0367 112.569 82.9577 110.373 90.1539 108.586C103.256 105.334 116.837 106.822 129.002 112.593C137.466 116.609 143.497 123.561 150.615 129.458C151.371 130.08 152.126 130.702 152.89 131.317C160.079 137.104 167.653 142.426 175.534 147.229C187.502 154.528 199.753 161.417 207.399 173.677C219.588 193.21 209.297 214.485 195.912 230.389Z" fill="#92E3A9"/>
<path opacity="0.4" d="M195.912 230.389C189.857 237.577 182.747 243.876 174.677 248.718C172.15 250.23 169.567 251.576 166.922 252.765C148.553 261.024 127.617 261.559 108.036 256.812C66.872 246.837 45.0306 210.501 42.2594 170.164C41.5114 159.26 39.8426 147.488 44.2592 137.119C48.6371 126.836 57.6049 120.317 67.7067 115.829C75.0367 112.569 82.9577 110.373 90.1539 108.586C103.256 105.334 116.837 106.822 129.002 112.593C137.466 116.609 143.497 123.561 150.615 129.458C151.371 130.08 152.126 130.702 152.89 131.317C160.079 137.104 167.653 142.426 175.534 147.229C187.502 154.528 199.753 161.417 207.399 173.677C219.588 193.21 209.297 214.485 195.912 230.389Z" fill="white"/>
<path d="M152.891 131.315C152.128 130.701 151.369 130.082 150.615 129.457C143.496 123.562 137.464 116.609 129.003 112.593C116.837 106.82 103.252 105.336 90.1538 108.587C73.0414 112.834 51.8123 119.373 44.2585 137.121C39.8445 147.491 41.512 159.26 42.2613 170.162C45.0338 210.501 66.8693 246.838 108.034 256.815C130.436 262.244 154.601 260.759 174.68 248.718C182.745 243.881 189.86 237.575 195.908 230.389C209.294 214.486 219.59 193.21 207.403 173.676C199.756 161.419 187.505 154.53 175.534 147.231C167.651 142.425 160.083 137.103 152.891 131.315Z" stroke="#263238" stroke-miterlimit="10"/>
<path d="M90.5036 203.246C87.1079 204.295 83.6863 205.607 80.568 207.243" stroke="#263238" stroke-miterlimit="10" stroke-linecap="round" stroke-linejoin="round"/>
<path d="M111.51 199.253C111.51 199.253 104.779 199.713 96.604 201.609" stroke="#263238" stroke-miterlimit="10" stroke-linecap="round" stroke-linejoin="round"/>
<path d="M107.12 198.214C107.12 198.214 87.7991 186.976 64.4829 195.983" stroke="#263238" stroke-miterlimit="10" stroke-linecap="round" stroke-linejoin="round"/>
<path opacity="0.1" d="M195.912 230.389C189.857 237.577 182.748 243.876 174.677 248.718C172.15 250.23 169.567 251.576 166.922 252.765C164.82 252.119 162.757 251.371 160.733 250.497C148.671 245.316 138.545 236.577 128.648 227.947C122.68 222.751 116.618 217.476 109.476 214.066C99.9331 209.507 88.6972 208.586 78.5405 211.523C83.784 205.563 91.1542 201.508 98.9963 200.264C93.8943 195.619 86.7847 193.666 79.8795 193.54C72.9742 193.406 69.1712 194.264 62.4315 195.776C64.6834 191.626 70.6751 187.871 75.3995 187.981C70.6751 187.87 65.2821 187.556 61.9672 187.029C55.865 186.045 53.1411 178.872 52.2275 172.769C49.7078 155.967 52.2592 138.055 61.4319 123.764C63.3528 120.772 65.4477 118.142 67.7074 115.828C75.0374 112.568 82.9584 110.371 90.1546 108.584C103.256 105.333 116.838 106.82 129.002 112.592C137.466 116.607 143.498 123.56 150.616 129.457C151.371 130.079 152.127 130.701 152.891 131.315C160.079 137.103 167.654 142.425 175.535 147.228C187.503 154.527 199.754 161.416 207.399 173.675C219.588 193.21 209.297 214.485 195.912 230.389Z" fill="black"/>
<path d="M202.623 229.912C202.623 229.912 208.056 234.485 213.98 238.282C221.669 238.799 218.221 248.094 218.221 248.094L211.639 252.325C211.639 252.325 200.397 243.389 194.261 240.486C188.125 237.583 202.623 229.912 202.623 229.912Z" fill="white"/>
<path opacity="0.3" d="M148.021 132.075C148.021 132.075 146.965 121.645 145.286 118.714L119.76 113.497V111.522C119.76 111.522 120.349 108.079 114.658 105.927C108.968 103.775 97.114 106.573 94.0558 108.886C90.9976 111.2 92.1181 115.183 92.1181 115.183C92.1181 115.183 81.8326 120.394 77.2071 122.377C72.5817 124.358 66.1646 128.196 66.1646 128.196C66.1646 128.196 64.0743 152.165 64.4835 157.732C64.8928 163.299 64.1512 168.536 64.6264 171.621C65.1023 174.706 65.4799 176.459 68.7165 179.084C71.9532 181.708 74.886 185.582 83.3663 181.739L82.1837 180.804L138.008 162.033L148.021 132.075Z" fill="black"/>
<path d="M148.021 132.075C148.021 132.075 146.965 121.645 145.286 118.714L119.76 113.497V111.522C119.76 111.522 120.349 108.079 114.658 105.927C108.968 103.775 97.114 106.573 94.0558 108.886C90.9976 111.2 92.1181 115.183 92.1181 115.183C92.1181 115.183 81.8326 120.394 77.2071 122.377C72.5817 124.358 66.1646 128.196 66.1646 128.196C66.1646 128.196 64.0743 152.165 64.4835 157.732C64.8928 163.299 64.1512 168.536 64.6264 171.621C65.1023 174.706 65.4799 176.459 68.7165 179.084C71.9532 181.708 74.886 185.582 83.3663 181.739L82.1837 180.804L138.008 162.033L148.021 132.075Z" fill="#92E3A9"/>
<path opacity="0.05" d="M148.021 132.075C148.021 132.075 146.965 121.645 145.286 118.714L119.76 113.497V111.522C119.76 111.522 120.349 108.079 114.658 105.927C108.968 103.775 97.114 106.573 94.0558 108.886C90.9976 111.2 92.1181 115.183 92.1181 115.183C92.1181 115.183 81.8326 120.394 77.2071 122.377C72.5817 124.358 66.1646 128.196 66.1646 128.196C66.1646 128.196 64.0743 152.165 64.4835 157.732C64.8928 163.299 64.1512 168.536 64.6264 171.621C65.1023 174.706 65.4799 176.459 68.7165 179.084C71.9532 181.708 74.886 185.582 83.3663 181.739L82.1837 180.804L138.008 162.033L148.021 132.075Z" fill="black"/>
<path opacity="0.1" d="M145.622 119.973H134.943C132.868 119.973 131.098 121.473 130.758 123.52L125.493 155.224C125.493 155.224 118.247 155.826 113.114 159.574C107.981 163.321 95.3535 136.607 75.3975 136.594C75.3975 136.594 81.1396 149.717 82.4139 160.191C82.4139 160.191 69.9412 158.834 67.8702 163.714C65.7987 168.595 68.8116 177.745 74.0843 174.205C79.357 170.665 84.298 164.74 87.8534 168.456C91.4088 172.172 107.12 174.205 107.12 174.205L131.347 162.034L140.743 157.617L145.622 119.973Z" fill="black"/>
<path opacity="0.4" d="M111.709 104.279C111.709 104.279 117.776 105.962 118.758 107.995C119.74 110.029 119.64 115.184 119.64 115.184C119.64 115.184 117.987 119.763 113.114 124.159L108.586 115.184L108.991 125.365C108.991 125.365 100.406 123.936 96.763 121.19C93.1197 118.444 93.1197 118.444 93.1197 118.444C93.1197 118.444 91.5518 113.289 91.7742 111.522C91.9966 109.755 98.5676 106.209 98.5676 106.209L111.709 104.279Z" fill="white"/>
<path d="M212.726 261.206C212.56 260.833 215.218 256.143 213.137 251.362C211.056 246.581 207.738 248.424 207.738 248.424C207.738 248.424 198.292 242.413 194.321 240.515C190.351 238.616 186.078 235.614 186.078 235.614L181.884 241.263L185.761 253.265L212.726 261.206Z" fill="#92E3A9"/>
<path d="M207.392 248.134L219.523 255.548C219.523 255.548 228.048 250.076 232.119 246.299C236.19 242.521 245.289 234.484 245.289 234.484L251.098 226.652C251.098 226.652 247.061 221.66 240.337 225.672C231.647 230.857 221.051 238.354 213.979 238.282C213.979 238.282 215.374 246.966 207.392 248.134Z" fill="#92E3A9"/>
<path d="M109.653 72.9298C109.653 72.9298 115.158 81.2568 116.16 83.9536C117.161 86.6504 117.969 90.6416 117.766 92.5593C117.562 94.477 115.553 104.766 114.514 105.066L113.537 106.17L114.163 110.528C114.163 110.528 109.857 117.974 97.1961 112.516C97.1961 112.516 96.7021 103.822 95.1633 101.095C93.6245 98.3687 91.3215 101.612 89.0178 93.7309C86.7141 85.8493 94.0597 77.6012 94.0597 77.6012L109.653 72.9298Z" fill="white"/>
<path opacity="0.5" d="M245.855 224.222C245.855 224.222 239.622 225.304 237.596 228.996C235.57 232.688 231.687 239.551 230.361 242.869C229.034 246.187 218.066 254.198 218.066 254.198L219.523 255.548C219.523 255.548 228.448 250.031 233.83 244.788C239.213 239.545 251.096 226.355 251.096 226.355C251.096 226.355 250.247 225.506 245.855 224.222Z" fill="white"/>
<path opacity="0.5" d="M183.423 239.191L181.884 241.264L186.627 251.106L212.727 260.487L213.937 256.664C213.937 256.664 214.341 252.771 205.179 249.839C196.018 246.907 190.432 244.946 187.826 242.918C185.22 240.89 183.423 239.191 183.423 239.191Z" fill="white"/>
<path d="M97.2563 166.099C97.2563 166.099 89.2642 164.899 85.5329 171.436C81.8016 177.974 82.1831 180.804 82.1831 180.804C82.1831 180.804 87.4623 185.602 94.7225 185.356C101.983 185.11 112.566 176.743 116.011 174.035C119.457 171.328 128.148 163.575 134.077 165.176L134.731 159.569C134.731 159.569 134.155 157.056 129.082 157.732C124.01 158.407 122.021 161.303 120.39 161.303C118.758 161.303 117.208 159.729 113.902 165.344C113.902 165.344 102.374 167.391 97.2563 166.099Z" fill="white"/>
<path d="M107.646 84.9086C107.812 85.956 108.054 86.9912 108.37 88.003C108.522 88.4918 108.701 88.9897 109.046 89.3679C109.657 90.0371 110.636 90.1852 111.532 90.3209C111.68 90.3436 111.841 90.374 111.936 90.4884C112.023 90.5925 112.032 90.7393 112.032 90.8751C112.03 91.8856 111.721 92.8936 111.156 93.7309" stroke="#263238" stroke-miterlimit="10" stroke-linecap="round" stroke-linejoin="round"/>
<path opacity="0.1" d="M188.788 232.51L183.423 239.191C183.423 239.191 189.309 244.627 195.402 246.641C201.494 248.656 212.152 252.475 213.937 255.393L213.251 251.88C213.251 251.88 196.579 241.652 192.747 239.21C188.916 236.769 188.788 232.51 188.788 232.51Z" fill="black"/>
<path opacity="0.1" d="M207.392 248.134L218.066 254.198C218.066 254.198 223.322 250.605 225.921 247.928C228.52 245.251 231.69 242.327 233.65 236.37C236.358 228.137 244.119 224.222 244.119 224.222C244.119 224.222 233.327 229.301 227.709 233.291C222.091 237.282 216.615 238.939 213.436 238.669C213.436 238.669 215.99 246.755 207.392 248.134Z" fill="black"/>
<path d="M103.878 95.1992C103.878 95.1992 108.074 98.4896 112.434 97.2559C112.434 97.2559 108.321 105.4 103.878 95.1992Z" fill="white" stroke="#263238" stroke-miterlimit="10" stroke-linecap="round" stroke-linejoin="round"/>
<path d="M103.75 88.0864C103.871 88.9923 103.598 89.7765 103.141 89.838C102.684 89.8987 102.215 89.214 102.094 88.3082C101.972 87.4024 102.245 86.6181 102.702 86.5567C103.159 86.4953 103.629 87.1806 103.75 88.0864Z" fill="#263238"/>
<path d="M112.859 86.4422C112.981 87.3481 112.708 88.1323 112.251 88.1938C111.793 88.2552 111.325 87.5698 111.203 86.664C111.082 85.7582 111.354 84.9739 111.812 84.9125C112.269 84.8511 112.738 85.5358 112.859 86.4422Z" fill="#263238"/>
<path d="M103.088 84.2478C103.088 84.2478 100.642 82.9877 98.9011 85.6884" stroke="#263238" stroke-miterlimit="10" stroke-linecap="round" stroke-linejoin="round"/>
<path d="M109.344 82.5674C109.344 82.5674 111.924 80.3471 113.425 82.5674" stroke="#263238" stroke-miterlimit="10" stroke-linecap="round" stroke-linejoin="round"/>
<path d="M94.7774 92.5677C94.7774 92.5677 93.2043 90.2453 91.5562 90.3203C89.9082 90.3953 89.2338 92.7177 89.8332 94.9652C90.4325 97.2126 92.9049 100.359 94.7774 100.059C96.6505 99.7594 97.4742 98.5607 97.4742 98.5607" stroke="#263238" stroke-miterlimit="10" stroke-linecap="round" stroke-linejoin="round"/>
<path d="M109.839 74.81C111.607 76.2732 113.473 77.8754 114.398 80.0323C115.185 81.8685 115.364 83.9006 116.086 85.7647C116.855 87.7509 117.7 89.8289 117.764 91.9949C117.822 93.9669 117.374 96.0165 116.982 97.9361C116.642 99.5978 116.38 101.311 115.783 102.905C114.914 105.226 113.301 106.654 111.14 107.757C109.568 108.559 106.95 109.711 105.252 108.624C104.262 107.991 102.778 106.13 101.54 104.428" stroke="#263238" stroke-miterlimit="10" stroke-linecap="round" stroke-linejoin="round"/>
<path d="M94.7773 100.059C94.7773 100.059 97.5563 106.875 96.8819 111.67" stroke="#263238" stroke-miterlimit="10" stroke-linecap="round" stroke-linejoin="round"/>
<path d="M94.0635 91.4227C94.8071 90.8847 95.2325 89.9375 95.1413 89.0252C95.0366 87.9765 94.3092 87.0086 94.4541 85.9644C94.5252 85.4524 94.8006 84.9959 95.0094 84.5233C95.775 82.7969 95.6463 80.7021 94.6752 79.0831C94.6752 79.0831 103.506 79.4963 107.645 76.8635C111.785 74.2313 114.934 67.5039 112.434 64.2866C109.933 61.0694 105.058 65.4569 101.45 65.9438C97.8433 66.4313 84.9742 68.4789 82.9266 73.4509C80.8789 78.423 83.9992 80.1823 84.0962 84.9086C84.1938 89.635 84.1886 98.5872 91.2594 97.7674C91.2594 97.7674 88.6156 94.3471 90.4506 90.8214C91.7017 89.3201 94.0635 91.4227 94.0635 91.4227Z" fill="#263238"/>
<path d="M111.384 69.8735C111.384 69.8735 115.02 72.2994 115.613 77.6374C116.007 81.1819 122.296 88.0664 117.764 91.9936C117.764 91.9936 116.707 87.8207 116.086 85.7634C115.465 83.7067 114.674 79.954 113.632 78.6428C112.589 77.3316 107.067 72.8497 107.067 72.8497L111.384 69.8735Z" fill="#263238"/>
<path d="M95.5933 111.522C95.5933 111.522 99.9511 114.388 108.045 114.508L108.991 125.364C108.991 125.364 99.8936 124.669 93.1196 118.443C93.1196 118.443 91.2911 113.601 91.7741 111.522C92.2564 109.442 96.5929 107.376 96.5929 107.376" stroke="#263238" stroke-miterlimit="10" stroke-linecap="round" stroke-linejoin="round"/>
<path d="M113.903 106.664L114.163 110.528C111.221 113.544 108.045 114.509 108.045 114.509L113.114 124.159C113.114 124.159 119.156 119.455 119.759 114.509C119.759 114.509 119.809 109.443 118.759 107.996C117.709 106.548 113.864 105.866 113.864 105.866" stroke="#263238" stroke-miterlimit="10" stroke-linecap="round" stroke-linejoin="round"/>
<path opacity="0.8" d="M89.3728 76.6598C90.0284 75.035 91.7883 74.102 93.516 73.8117C95.2436 73.5208 97.0112 73.7367 98.7628 73.6902C101.163 73.6275 103.585 73.0488 105.614 71.7647C107.643 70.4807 109.246 68.4479 109.754 66.1015" stroke="white" stroke-miterlimit="10" stroke-linecap="round" stroke-linejoin="round"/>
<path opacity="0.8" d="M85.1992 76.3475C86.2958 73.0275 89.8376 70.9811 93.3219 70.6856C95.0476 70.5389 96.7927 70.7425 98.5125 70.5401C100.232 70.3378 102.023 69.6279 102.921 68.1472" stroke="white" stroke-miterlimit="10" stroke-linecap="round" stroke-linejoin="round"/>
<path d="M83.3657 181.74C74.974 186.098 71.9733 181.615 67.2935 177.903C62.6131 174.191 65.6797 167.574 64.7112 156.923C63.7426 146.272 66.1633 128.196 66.1633 128.196C66.1633 128.196 68.2614 127.712 74.0714 124.159C79.8814 120.605 92.1175 115.184 92.1175 115.184" stroke="#263238" stroke-miterlimit="10" stroke-linecap="round" stroke-linejoin="round"/>
<path d="M91.6933 165.645C91.6933 165.645 90.3601 161.423 86.5946 161.309C82.829 161.195 76.8969 162.893 72.6722 170.894" stroke="#263238" stroke-miterlimit="10" stroke-linecap="round" stroke-linejoin="round"/>
<path d="M85.7372 161.058C85.5031 161.062 85.2781 160.976 85.0583 160.896C81.9813 159.781 78.5636 159.627 75.3981 160.46" stroke="#263238" stroke-miterlimit="10" stroke-linecap="round" stroke-linejoin="round"/>
<path d="M73.236 133.968C80.0772 141.532 83.416 151.54 86.5783 161.237" stroke="#263238" stroke-miterlimit="10" stroke-linecap="round" stroke-linejoin="round"/>
<path d="M119.76 113.497C119.76 113.497 132.176 116.458 138.238 117.163C144.3 117.868 145.287 118.713 145.287 118.713L146.414 122.943" stroke="#263238" stroke-miterlimit="10" stroke-linecap="round" stroke-linejoin="round"/>
<path d="M177.611 120.872L135.33 122.498L131.876 165.981H139.119L175.829 157.758L180.448 121.918L177.611 120.872Z" fill="white"/>
<path d="M134.077 167.268L180.315 122.943L175.829 157.758L134.077 167.268Z" fill="#92E3A9"/>
<path opacity="0.7" d="M134.077 167.268L180.315 122.943L175.829 157.758L134.077 167.268Z" fill="white"/>
<path d="M134.077 166.099L137.772 124.159L180.448 121.918L175.829 157.758L134.077 166.099Z" stroke="#263238" stroke-miterlimit="10" stroke-linecap="round" stroke-linejoin="round"/>
<path d="M162.459 142.234C162.171 144.788 160.807 146.731 159.413 146.573C158.019 146.415 157.122 144.217 157.411 141.664C157.699 139.11 159.063 137.168 160.457 137.326C161.851 137.483 162.748 139.681 162.459 142.234Z" fill="#263238"/>
<path d="M175.829 157.758C175.829 157.758 195.368 157.203 201.479 161.237C207.591 165.271 211.173 185.503 210.33 196.25C209.487 206.999 202.111 231.656 202.111 231.656L187.991 215.639C187.991 215.639 181.037 190.35 184.83 180.445C184.83 180.445 166.073 181.499 158.697 179.18C158.697 179.18 152.082 168.352 140.743 164.767L175.829 157.758Z" fill="#263238"/>
<path d="M205.092 232.074C199.125 226.67 193.368 219.232 191.66 216.587C184.826 206.028 175.378 195.872 165.662 187.99C157.828 181.636 156.056 171.29 146.395 166.101C130.396 157.519 116.562 174.573 111.389 178.022C106.216 181.471 97.2562 185.36 97.2562 185.36C97.2562 185.36 100.524 197.62 110.129 199.1C119.735 200.58 129.459 193.927 134.08 197.132C138.702 200.328 142.08 214.619 157.26 222.996C169.669 229.838 186.573 236.515 195.297 241.01C197.25 242.018 198.686 243.08 199.785 243.679C202.798 245.322 206.018 247.26 209.055 249.172L219.522 255.548C219.522 255.548 230.027 249.334 234.061 243.604C234.604 242.834 235.719 240.783 236.766 238.804C239.052 234.484 241.926 230.604 245.941 228.446C248.711 226.958 251.175 226.501 251.096 226.354C250.829 225.861 245.815 223.297 242.405 224.7C235.19 227.677 220.768 239.13 213.98 238.282C213.98 238.282 209.034 235.645 205.092 232.074Z" stroke="#263238" stroke-miterlimit="10"/>
<path d="M205.092 232.074C198.801 234.617 196.266 238.53 195.298 241.01C186.574 236.515 169.67 229.838 157.261 222.996C142.081 214.619 138.703 200.328 134.081 197.132C129.459 193.927 119.735 200.58 110.13 199.1C100.523 197.619 97.2595 185.357 97.2595 185.357C97.2595 185.357 106.219 181.473 111.392 178.024C116.565 174.575 128.492 157.516 146.395 166.101C156.284 170.843 157.827 181.636 165.661 187.989C175.377 195.871 184.825 206.028 191.66 216.586C193.368 219.232 199.109 226.688 205.092 232.074Z" fill="#263238"/>
<path d="M157.817 177.263C157.817 177.263 152.975 167.421 145.207 165.512" stroke="white" stroke-miterlimit="10" stroke-linecap="round" stroke-linejoin="round"/>
<path d="M132.435 157.67C127.092 156.504 121.227 162.408 118.759 161.303C116.922 160.482 113.903 165.345 113.903 165.345C113.903 165.345 106.083 166.553 98.8882 166.099C91.6933 165.645 88.2827 167.042 85.7372 170.894L82.1831 180.31C82.1831 180.31 91.5601 188.725 101.582 183.822C111.604 178.919 124.909 164.165 134.077 164.216" stroke="#263238" stroke-miterlimit="10" stroke-linecap="round" stroke-linejoin="round"/>
<path d="M206.984 247.883C206.984 247.883 215.757 248.604 213.697 238.127" stroke="#263238" stroke-miterlimit="10"/>
<path d="M248.303 231.656C247.639 232.976 239.616 239.79 232.691 245.77C232.712 245.677 234.607 242.027 235.438 240.469C237.275 237.028 242.034 227.594 251.096 226.354C252.382 227.128 248.303 231.656 248.303 231.656Z" fill="#263238"/>
<path d="M244.855 224.289C235.695 226.118 233.615 237.855 230.361 242.869C227.108 247.884 218.066 254.661 218.066 254.661" stroke="#263238" stroke-miterlimit="10"/>
<path d="M213.137 251.658C214.626 254.39 213.922 257.556 213.137 259.539C212.478 261.208 211.7 262.365 211.7 262.365C198.73 260.234 185.76 253.265 185.76 253.265L182.416 242.918L181.884 241.263L186.917 234.484" stroke="#263238" stroke-miterlimit="10"/>
<path d="M213.137 259.54C212.478 261.209 211.7 262.366 211.7 262.366C198.73 260.235 185.76 253.266 185.76 253.266L182.416 242.918C184.092 245.106 187.198 248.302 191.852 249.621C198.17 251.408 209.828 253.504 213.137 259.54Z" fill="#263238"/>
<path d="M131.876 164.468L135.33 122.498L177.611 120.872L180.448 121.918" stroke="#263238" stroke-miterlimit="10" stroke-linecap="round" stroke-linejoin="round"/>
<path d="M213.607 242.869C213.607 242.869 219.39 243.901 223.829 240.277C228.268 236.653 235.429 228.465 235.429 228.465" stroke="#263238" stroke-miterlimit="10"/>
<path d="M219.523 237.641C219.523 237.641 218.129 239.742 219.523 243.963" stroke="#263238" stroke-miterlimit="10" stroke-linecap="round" stroke-linejoin="round"/>
<path d="M223.622 235.645C223.622 235.645 222.504 238.788 224.145 241.965" stroke="#263238" stroke-miterlimit="10" stroke-linecap="round" stroke-linejoin="round"/>
<path d="M228.506 232.812C228.506 232.812 227.335 236.325 228.506 239.423" stroke="#263238" stroke-miterlimit="10" stroke-linecap="round" stroke-linejoin="round"/>
<path d="M188.063 233.61L183.423 239.191C183.423 239.191 188.098 244.29 194.68 246.41C201.263 248.53 213.041 252.132 214.014 255.965" stroke="#263238" stroke-miterlimit="10"/>
</svg>
